<svg width="189" height="185" viewBox="0 0 189 185" fill="none" xmlns="http://www.w3.org/2000/svg">
<path d="M47.9096 15.2148C53.4096 5.21487 64.9097 -1.2851 74.9096 0.214767H74.9116C84.9107 1.71463 94.9109 3.2149 108.41 4.71477C121.91 6.2147 147.41 3.71481 158.91 15.2148C170.409 26.7147 166.91 32.2149 177.91 49.2148C188.909 66.2145 189.41 64.715 188.41 98.7148C187.41 132.714 172.41 130.215 169.91 147.215C167.41 164.214 153.909 172.715 137.91 172.715C121.91 172.715 101.91 179.715 93.9096 182.715C85.91 185.715 86.9091 187.714 64.9096 175.215C42.9097 162.715 35.7288 167.715 27.4086 155.215C25.4086 151.381 19.4085 141.815 11.4086 134.215C1.40897 124.715 -2.8585 104.512 2.02486 92.8632C6.9086 81.215 8.41011 59.7147 17.9096 44.2148C27.4092 28.715 42.4095 25.2145 47.9096 15.2148ZM115.409 12.7148C100.409 10.7148 89.4084 10.2148 72.9086 15.7148C56.4089 21.2149 40.4086 33.2149 35.9086 40.7148C31.4086 48.215 24.4085 64.715 16.9086 76.2148C9.40912 87.7149 12.8557 108.715 13.9086 114.715C14.3474 117.215 14.7089 122.715 19.9086 128.715C26.4085 136.215 30.4089 147.215 39.9086 153.215C49.4085 159.215 67.4086 168.215 77.9086 170.215C88.4083 172.215 105.908 172.214 112.409 169.215C118.908 166.215 135.908 163.215 142.909 160.715C149.908 158.215 161.408 150.215 162.909 144.215C164.409 138.215 166.909 123.715 171.409 116.715C175.909 109.715 181.908 92.215 180.409 85.2148C178.909 78.2148 172.909 64.7148 167.909 57.2148C162.909 49.7147 163.909 33.2148 155.909 27.2148C147.909 21.2148 130.409 14.7148 115.409 12.7148ZM113.91 20.2148C134.409 16.7149 147.91 32.2158 149.91 41.2157C151.91 50.2154 154.41 58.7149 158.91 64.2148C163.41 69.7147 171.409 83.7148 168.41 92.7148C165.41 101.715 163.91 113.215 161.41 119.715C158.909 126.215 150.409 142.715 140.91 146.715C131.41 150.715 121.909 162.215 108.91 161.215C95.9095 160.215 69.9095 164.215 60.4096 154.715C50.9098 145.215 36.9098 141.215 30.9096 128.216C28.0764 121.049 22.6101 104.516 23.4096 95.7157C24.4096 84.7163 26.9098 77.2157 29.9096 72.2157C32.9095 67.2159 49.4089 42.2168 53.4096 35.2157C57.4095 28.2159 70.9096 22.2159 78.9096 21.7157C86.9095 21.2158 93.4101 23.7146 113.91 20.2148ZM79.8979 36.3564C74.3984 35.3567 71.3978 39.8566 69.3979 44.3564C67.3996 48.8561 76.8981 54.856 82.3979 55.8564C87.8979 56.8564 97.3979 62.3564 101.898 68.8564C106.398 75.3562 115.398 78.8564 118.898 81.3564C122.398 83.8564 122.398 87.8564 116.398 91.3564C110.398 94.8568 106.898 104.357 104.898 108.356C102.897 112.356 93.8976 118.857 88.8979 121.856C83.8975 124.856 73.3976 125.857 68.8979 128.856C65.2991 131.257 67.398 138.523 68.8979 141.856C74.8976 149.356 89.8966 139.857 92.8979 135.356C95.8977 130.857 100.898 124.857 105.898 121.856C110.898 118.857 119.897 107.357 121.898 103.356C123.898 99.3567 137.396 96.3565 140.898 94.8564C144.398 93.3564 147.398 88.8561 145.898 82.3564C144.398 75.8564 132.898 75.3564 128.398 74.8564C123.899 74.3563 123.398 73.3559 117.398 66.3564C111.398 59.3564 108.898 59.8564 104.898 57.3564C100.898 54.8564 98.8978 51.3562 94.3979 46.3564C89.8979 41.3564 85.3979 37.3566 79.8979 36.3564Z" fill="white"/>
</svg>
