<svg width="194" height="182" viewBox="0 0 194 182" fill="none" xmlns="http://www.w3.org/2000/svg">
<path d="M82.4834 4.48438C95.9837 4.48417 128.484 -4.51554 144.483 2.98438C160.483 10.4844 162.483 24.4844 170.983 34.9844C179.483 45.4843 184.483 50.4845 188.983 68.4844C193.483 86.4842 195.983 100.984 188.983 109.484C181.983 117.984 165.484 135.984 159.983 147.984C154.483 159.984 135.483 179.984 118.483 179.984C101.484 179.984 90.4831 181.984 71.9834 180.984C53.4836 179.984 29.9834 157.985 21.9834 149.484C17.8167 143.818 8.78342 130.384 5.9834 121.984C2.4834 111.484 -2.0166 77.9844 0.983398 66.9844C3.98332 55.9845 4.48361 43.4842 26.9834 23.9844C49.4833 4.48467 68.9835 4.48438 82.4834 4.48438ZM154.983 25.4844C149.983 13.4845 129.983 9.48458 111.483 14.9844C92.9837 20.4843 63.4838 17.4845 52.9834 19.9844C45.4834 21.7701 22.9835 37.4845 20.4834 57.9844C17.9834 78.4843 12.9834 77.9845 14.4834 102.984C15.6834 122.984 20.4834 124.484 22.9834 129.984C31.4833 139.484 33.4836 154.484 53.4834 160.984C73.483 167.484 78.4835 166.484 93.4834 169.484C108.483 172.484 126.983 172.984 135.983 160.984C144.983 148.985 148.983 145.984 156.983 135.984C164.983 125.985 174.983 114.984 177.983 104.484C180.983 93.9844 183.483 79.9843 177.983 69.9844C172.483 59.9844 159.983 37.4844 154.983 25.4844ZM100.983 23.4854C117.483 23.9853 132.483 19.9854 141.483 26.9854C150.483 33.9849 150.984 34.9858 159.983 53.4854C168.983 71.9849 172.983 84.4856 166.483 97.9854C159.983 111.485 151.983 119.485 143.483 128.485C134.984 137.485 137.483 158.485 116.483 159.485C95.4838 160.485 90.9832 160.485 83.9834 160.485C76.9838 160.485 64.4033 155.985 61.4834 151.985C56.9835 145.819 51.9829 134.886 41.9834 130.485C29.4836 124.985 26.9836 101.985 28.9834 87.9854C30.9834 73.9856 25.9838 64.4853 30.9834 57.9854C35.9834 51.4854 50.9834 37.9854 60.9834 31.4854C70.9834 24.9854 84.4834 22.9854 100.983 23.4854ZM119.483 37.9854C113.483 36.9854 96.4835 46.4853 90.9834 48.9854C85.4834 51.4854 77.4834 62.9854 74.4834 65.9854C71.4831 68.9853 55.4838 74.4852 51.9834 75.4854C48.4834 76.4854 44.4834 81.9854 46.4834 88.4854C48.484 94.9848 59.9836 97.9856 64.4834 104.485C68.9842 110.985 86.9836 115.485 92.9834 117.485C98.9832 119.486 104.984 126.486 108.483 131.485C111.983 136.485 117.484 137.485 122.483 136.985C127.483 136.485 129.483 129.985 126.983 122.985C124.483 115.986 110.984 116.985 104.983 112.485C98.9838 107.986 92.9836 107.485 89.9834 105.985C86.9835 104.485 79.4836 97.9853 75.9834 92.9854C72.4835 87.9855 65.9839 90.4846 66.9834 84.9854C67.9834 79.4854 82.4833 72.4854 86.9834 67.9854C91.4834 63.4854 97.9834 62.4853 105.483 59.9854C112.983 57.4855 123.483 57.485 128.983 48.9854C133.383 42.1857 124.484 38.8189 119.483 37.9854Z" fill="white"/>
</svg>
