<svg width="22" height="20" viewBox="0 0 22 20" fill="none" xmlns="http://www.w3.org/2000/svg">
<path d="M9.53333 0.5H10.2667C10.5321 0.766519 11.1676 1.012 12.1733 1.23643C12.8578 1.97988 13.2 2.42174 13.2 2.56202C13.1022 3.8385 13.0533 4.86951 13.0533 5.65504V5.94961L13.2 6.83333C13.1022 7.00166 13.0533 7.24714 13.0533 7.56977V8.45349L13.2 8.74806C14.1778 8.64987 14.9111 8.60077 15.4 8.60077H17.3067C17.5302 8.60077 17.7257 8.55168 17.8933 8.45349C20.5613 8.74806 21.9302 9.53359 22 10.8101C22 11.8902 20.3867 12.4302 17.16 12.4302C16.7829 12.332 16.3917 12.2829 15.9867 12.2829C13.9333 12.2829 12.9067 12.5284 12.9067 13.0194V14.9341C12.9067 15.0323 12.9556 15.0814 13.0533 15.0814L12.9067 15.376V17.7326C12.9067 18.9109 12.2222 19.5 10.8533 19.5C8.89778 19.3878 7.92 18.7495 7.92 17.5853C7.82222 17.5853 7.77333 17.4871 7.77333 17.2907C7.87111 15.5513 7.92 14.0784 7.92 12.8721V12.4302C7.92 12.0094 6.06222 11.7639 2.34667 11.6938C0.782222 10.9784 0 10.2911 0 9.63178C0 8.64987 0.733333 8.15891 2.2 8.15891C3.31746 8.15891 5.22413 8.25711 7.92 8.45349L8.06667 8.15891V2.85659L7.92 1.97287C8.11556 0.990956 8.65333 0.5 9.53333 0.5Z" fill="#F1E3CF"/>
</svg>
