<svg width="34" height="54" viewBox="0 0 34 54" fill="none" xmlns="http://www.w3.org/2000/svg">
<path d="M5.99991 50.499C3.19991 52.499 1.99991 52.9274 0.999907 53.0941C0.999907 51.094 1.99985 42.5942 2.49991 38.5941C2.99996 34.594 1.49997 30.499 0.499971 24.499C-0.500029 18.499 1.9999 13.999 2.4999 10.499C2.9999 6.99902 0.999949 -0.00100192 3.49995 0.999134C5.99995 1.99927 12.9905 1.15935 18 4.49902C22.5 7.49902 29.9999 0.999019 29.9999 3.49901C29.9999 5.99901 29.9999 11.999 28.9999 15.499C27.9999 18.999 30.9999 22.999 32.4999 28.499C33.9999 33.999 33.9999 35.499 32.4999 38.999C30.9999 42.499 19.9999 41.499 14.4999 43.999C8.99991 46.499 9.49991 47.999 5.99991 50.499Z" fill="#F1E3CF"/>
<path d="M7.78636 18.499C14.1645 19.2551 17.5123 19.6331 17.8299 19.6331C18.0945 19.6331 19.087 19.5616 20.8072 19.4185C24.9357 20.4607 27 22.2895 27 24.9051C26.8677 25.416 26.2854 25.8758 25.2533 26.2844H21.6805C21.4953 26.2844 21.4026 26.356 21.4026 26.499C13.1191 25.9268 8.97729 25.1606 8.97729 24.2001C7.73343 23.5463 6.74099 22.1772 5.99997 20.0929C5.99997 19.4185 6.59543 18.8873 7.78636 18.499Z" fill="#81583F"/>
</svg>
