<svg width="34" height="54" viewBox="0 0 34 54" fill="none" xmlns="http://www.w3.org/2000/svg">
<path d="M5.99994 50.5C3.19994 52.5 1.99994 52.9284 0.999937 53.0951C0.999937 51.095 1.99988 42.5952 2.49994 38.5951C2.99999 34.595 1.5 30.5 0.5 24.5C-0.5 18.5 1.99993 14 2.49993 10.5C2.99993 7 0.999978 -2.6226e-05 3.49998 1.00011C5.99998 2.00025 12.9905 1.16033 18 4.5C22.5 7.5 29.9999 0.999995 29.9999 3.49999C29.9999 5.99999 29.9999 12 28.9999 15.5C27.9999 19 30.9999 23 32.4999 28.5C33.9999 34 33.9999 35.5 32.4999 39C30.9999 42.5 19.9999 41.5 14.4999 44C8.99994 46.5 9.49994 48 5.99994 50.5Z" fill="#F1E3CF"/>
</svg>
