<svg width="41" height="117" viewBox="0 0 41 117" fill="none" xmlns="http://www.w3.org/2000/svg">
<path d="M8.5 3C2.1 2.2 -0.833333 0.666667 -1.5 0L-2.5 116.5C-2 116 1 114 7.5 113C14 112 14 109.5 18.5 106.5C23 103.5 25 106 31 103.5C37 101 39.5 100 40.5 99C41.5 98 40.5 97.5 40.5 93C40.5 88.5 39 79.5 39 77.5C39 75.5 39 73.5 40 67C41 60.5 40.5 55 40 50.5C39.5 46 40 43 39 38.5C38 34 39 29 40 19.5C41 10 40 13.5 39 11.5C38 9.5 37 10.5 33 9.5C29 8.5 22 7.5 18.5 6C15 4.5 16.5 4 8.5 3Z" fill="#81583F"/>
</svg>
