<svg width="357" height="69" viewBox="0 0 357 69" fill="none" xmlns="http://www.w3.org/2000/svg">
<path d="M30.4674 5.61366C33.3524 4.94307 43.4381 2.14208 51.4353 3.17247C59.4329 4.20287 74.3002 4.47336 78.8082 3.46353C83.3165 2.45369 95.0631 0.978054 105.255 2.86705C115.446 4.75607 121.776 4.15898 125.946 4.21627C130.115 4.27357 146.889 0.717396 152.351 1.80483C157.813 2.89245 173.415 3.60036 183.408 4.73711C193.402 5.87382 199.301 2.25949 213.635 2.99554C227.969 3.7317 240.646 3.2942 249.726 4.14882C258.807 5.00343 266.907 2.55139 273.804 3.00111C280.701 3.45095 298.727 -0.891319 306.373 0.601095C314.018 2.09353 325.721 6.67274 331.548 7.90346C337.375 9.13419 342.864 11.4325 345.649 14.3967C348.434 17.3608 356.651 20.0515 355.977 30.3583C355.304 40.6648 353.051 37.2348 351.776 44.9822C350.501 52.7298 345.616 61.1644 338.928 61.9207C332.239 62.677 327.461 66.5317 325.102 66.4338C322.744 66.3356 314.137 67.9678 305.039 66.3569C295.941 64.7459 278.412 66.9573 273.52 67.0678C268.63 67.1781 245.996 68.1418 242.011 68.2317C238.026 68.3215 219.864 66.6125 216.607 66.8373C213.35 67.0622 202.684 68.2111 198.155 68.3133C193.627 68.4155 178.298 67.3597 175.583 67.5721C172.869 67.7847 155.299 68.1807 150.934 67.5224C146.57 66.8641 133.145 66.2592 127.892 66.3777C122.639 66.4961 109.921 65.118 104.336 66.6061C98.7516 68.0942 72.6206 66.5654 67.3597 66.3812C62.0999 66.1972 50.4074 66.8989 45.0003 68.2316C39.5935 69.5643 29.4125 68.1122 26.5002 67.5724C23.5883 67.0327 18.6153 66.7234 16.0077 63.6039C13.4002 60.4845 12.9831 60.3421 12.0914 58.6978C10.3883 55.5074 6.30972 48.2334 3.6194 44.6616C0.25651 40.1969 0.17446 36.5665 1.69554 31.689C3.21654 26.8118 6.54525 21.7425 6.49456 19.4732C6.44338 17.2041 11.5698 11.4877 16.2248 8.96105C20.8799 6.43445 27.5828 6.28412 30.4674 5.61366ZM75.8916 10.8319C71.5234 10.0224 53.7381 8.90974 45.9832 10.5981C38.2282 12.2865 33.4771 10.5773 28.282 13.2674C23.0869 15.9575 14.9905 18.5619 14.1599 21.9103C13.3292 25.2587 10.3453 29.564 9.33697 33.0678C8.32871 36.5716 9.89071 41.5306 12.8742 45.247C15.6884 48.7524 17.1977 51.6147 18.9488 54.9406C19.1592 55.3402 19.4437 55.6964 19.7995 55.9744C22.9319 58.4225 29.7242 62.5383 35.7311 62.2887C43.6979 61.9576 51.6647 61.6266 58.736 61.7698C65.8073 61.913 78.146 62.5431 83.5666 61.8154C88.9871 61.0878 99.865 61.2956 105.853 61.6146C111.841 61.9336 120.129 59.7798 128.298 60.3523C136.466 60.9248 153.766 61.3714 163.565 61.9071C173.363 62.4428 202.121 61.3656 208.272 60.9241C214.424 60.4827 222.938 60.291 228.94 61.215C234.941 62.1391 238.472 60.8174 246.442 60.6376C254.412 60.4579 259.488 60.495 270.91 60.6914C282.332 60.8878 289.205 60.2786 295.901 59.8249C302.596 59.3712 305.819 57.6341 314.524 57.8918C323.229 58.1495 331.431 60.2344 336.931 54.9649C342.43 49.695 344.526 45.0317 344.971 40.6325C345.415 36.2336 346.472 34.8476 346.927 30.9024C347.381 26.957 346.923 22.7299 340.853 18.7804C334.783 14.8309 331.328 14.3031 321.277 10.5947C311.225 6.88632 308.176 8.31716 299.294 8.2148C290.411 8.11245 282.8 8.13276 273.572 8.79494C264.344 9.45712 253.646 9.24463 247.867 10.1317C242.087 11.0188 223.242 11.1409 214.342 10.2822C205.442 9.42352 189.13 9.33716 183.531 10.2201C177.933 11.1031 161.807 11.3153 146.926 10.4401C132.046 9.56495 128.061 9.65538 118.283 10.0273C108.505 10.3991 98.7263 10.7709 92.9195 10.4479C87.1127 10.1248 80.2594 11.6415 75.8916 10.8319Z" fill="#F9B22E"/>
</svg>
