<svg width="357" height="69" viewBox="0 0 357 69" fill="none" xmlns="http://www.w3.org/2000/svg">
<path d="M30.4667 5.61224C33.3513 4.94179 43.4381 2.14175 51.4356 3.17201C59.4329 4.20236 74.3 4.4718 78.8085 3.46209C83.3168 2.45227 95.0637 0.976771 105.255 2.86561C115.446 4.75456 121.776 4.15855 125.946 4.21581C130.115 4.27307 146.889 0.716227 152.351 1.80339C157.813 2.89099 173.415 3.59895 183.409 4.73567C193.402 5.87236 199.302 2.25813 213.635 2.9941C227.969 3.73025 240.646 3.29377 249.727 4.14835C258.807 5.00296 266.908 2.55006 273.805 2.99967C280.702 3.44951 298.727 -0.891524 306.373 0.600632C314.018 2.09307 325.721 6.67215 331.548 7.90299C337.375 9.13369 342.864 11.4313 345.649 14.3953C348.435 17.3595 356.65 20.0499 355.977 30.3569C355.303 40.6639 353.051 37.2341 351.776 44.9817C350.501 52.7292 345.617 61.163 338.928 61.9193C332.24 62.6756 327.461 66.5301 325.102 66.4324C322.744 66.3344 314.136 67.9662 305.039 66.3554C295.941 64.7446 278.41 66.956 273.52 67.0663C268.627 67.1767 245.996 68.1413 242.012 68.2312C238.025 68.3209 219.864 66.6121 216.607 66.8369C213.35 67.0618 202.683 68.2098 198.155 68.3119C193.625 68.4139 178.296 67.3591 175.582 67.5717C172.866 67.7842 155.299 68.1801 150.934 67.522C146.57 66.8637 133.145 66.2578 127.892 66.3762C122.639 66.4946 109.921 65.1176 104.336 66.6057C98.751 68.0935 72.6209 66.5639 67.36 66.3798C62.1 66.1958 50.4075 66.8985 45.0005 68.2311C39.5937 69.5636 29.4127 68.1107 26.5005 67.5709C23.5885 67.0313 18.6154 66.7218 16.0079 63.6024C13.4007 60.4833 12.9834 60.3409 12.0916 58.6963C10.3885 55.5058 6.30895 48.2328 3.61871 44.6611C0.256023 40.1966 0.174763 36.5649 1.69581 31.6875C3.21697 26.8102 6.546 21.7407 6.49482 19.4717C6.44378 17.2026 11.5702 11.4873 16.2251 8.96059C20.8798 6.43423 27.5816 6.28254 30.4667 5.61224ZM75.8918 10.8305C71.523 10.0209 53.7383 8.90842 45.9835 10.5966C38.2287 12.2849 33.4773 10.5769 28.2823 13.267C23.0874 15.9569 14.9913 18.5608 14.1601 21.9089C13.3295 25.2572 10.3457 29.5626 9.33724 33.0664C8.32892 36.5701 9.89012 41.5301 12.8735 45.2466C15.6878 48.7521 17.1979 51.6142 18.9491 54.9402C19.1594 55.3396 19.4441 55.695 19.7998 55.973C22.932 58.421 29.7244 62.5366 35.7314 62.2872C43.698 61.9562 51.665 61.6252 58.7362 61.7684C65.8072 61.9116 78.1448 62.5415 83.5658 61.814C88.9862 61.0864 99.8651 61.2952 105.853 61.6141C111.841 61.9331 120.13 59.7785 128.298 60.3509C136.466 60.9234 153.766 61.3699 163.565 61.9057C173.364 62.4414 202.12 61.3652 208.273 60.9237C214.425 60.4823 222.938 60.2896 228.94 61.2136C234.941 62.1376 238.472 60.817 246.442 60.6372C254.412 60.4574 259.489 60.4935 270.91 60.69C282.332 60.8864 289.206 60.2782 295.901 59.8245C302.596 59.3707 305.82 57.6327 314.524 57.8904C323.229 58.1481 331.432 60.2331 336.931 54.9635C342.43 49.6937 344.527 45.0312 344.971 40.6321C345.416 36.2329 346.471 34.8463 346.926 30.901C347.381 26.9557 346.923 22.7284 340.853 18.7789C334.784 14.8297 331.328 14.3016 321.277 10.5933C311.226 6.88508 308.177 8.31572 299.294 8.21336C290.411 8.11101 282.8 8.13134 273.572 8.7935C264.344 9.45564 253.646 9.24324 247.867 10.1303C242.087 11.0173 223.242 11.1395 214.342 10.2808C205.443 9.42213 189.13 9.33672 183.531 10.2197C177.933 11.1026 161.807 11.3148 146.926 10.4396C132.046 9.5645 128.061 9.65395 118.283 10.0258C108.505 10.3977 98.7265 10.7695 92.9197 10.4465C87.1131 10.1235 80.2596 11.6401 75.8918 10.8305ZM24.6401 20.4251C26.4139 18.7203 32.8768 16.001 34.7328 17.9264C36.5885 19.8521 37.7569 23.4589 37.0733 25.2905C36.5265 26.7554 35.9296 28.1407 35.6994 28.6505C36.5278 27.875 38.6157 26.163 40.3409 25.5187C42.4975 24.7134 44.6746 24.8159 46.4688 24.0188C48.2632 23.2216 52.2109 21.468 55.8474 21.9914C59.4624 22.5117 63.2905 24.5225 63.3926 27.0725C63.503 26.923 64.1966 26.3719 66.4251 24.9304C75.8505 21.8612 77.5002 25.5191 78.0002 28.6508C78.4002 31.1561 71.4889 35.7682 67.9834 37.7608C67.8225 38.6731 66.4587 42.4863 64.6783 43.8886C62.8977 45.2909 60.286 50.0415 58.8778 51.8896C57.4696 53.7376 56.4272 55.7292 53.5358 56.0971C50.6443 56.465 47.9783 58.795 46.5087 57.9201C45.0391 57.0452 43.5866 56.9263 43.7233 54.9558C43.8601 52.9854 44.0245 52.2248 44.8892 50.3892C45.7539 48.5536 45.5389 47.045 46.7693 45.3524C47.9997 43.6598 50.7853 38.603 50.9496 37.8422C51.1137 37.0818 52.1041 32.822 52.0907 32.2164C49.3974 33.3367 43.9463 35.9113 43.6864 37.249C43.3616 38.9211 42.1414 41.0675 41.0887 42.6048C40.036 44.142 38.826 46.7422 38.491 47.9606C38.1561 49.179 38.214 51.7505 35.8865 53.0138C33.559 54.2771 33.0463 55.6508 30.8726 55.6998C28.6989 55.7488 21.9801 55.1438 21.5358 51.5216C21.0916 47.8992 20.3121 45.4951 20.8077 43.365C21.3034 41.2349 21.7784 38.1972 21.7681 37.7433C21.1255 38.7164 19.4012 40.4601 17.6431 39.6522C15.4457 38.6424 13.6312 38.5325 14.4956 36.6971C15.3604 34.8614 17.8282 31.7781 18.6862 29.6398C19.5442 27.5015 22.8662 22.1301 24.6401 20.4251Z" fill="#F9B22E"/>
</svg>
