<svg width="357" height="69" viewBox="0 0 357 69" fill="none" xmlns="http://www.w3.org/2000/svg">
<path d="M30.4674 5.61227C33.3525 4.94165 43.4381 2.14171 51.4353 3.17206C59.4328 4.20247 74.3001 4.47294 78.8082 3.46312C83.3163 2.45328 95.063 0.977664 105.255 2.86664C115.446 4.75564 121.776 4.15858 125.946 4.21586C130.115 4.27317 146.889 0.717096 152.351 1.80441C157.812 2.89203 173.415 3.59995 183.408 4.7367C193.402 5.87345 199.302 2.25897 213.636 2.99511C227.969 3.73123 240.646 3.29382 249.726 4.1484C258.807 5.00304 266.908 2.54989 273.805 2.9997C280.703 3.44934 298.727 -0.891631 306.373 0.600681C314.018 2.09309 325.72 6.67228 331.548 7.90304C337.375 9.13375 342.864 11.4322 345.649 14.3963C348.434 17.3604 356.651 20.0511 355.977 30.3579C355.304 40.6643 353.051 37.2344 351.776 44.9818C350.501 52.7294 345.616 61.164 338.928 61.9203C332.239 62.6766 327.46 66.5314 325.102 66.4334C322.744 66.3353 314.137 67.9665 305.039 66.3555C295.941 64.7446 278.412 66.956 273.52 67.0664C268.629 67.1767 245.996 68.1414 242.011 68.2312C238.025 68.321 219.864 66.6121 216.607 66.8369C213.35 67.0618 202.684 68.2107 198.155 68.3129C193.627 68.415 178.297 67.3592 175.583 67.5717C172.869 67.7843 155.299 68.1803 150.934 67.522C146.57 66.8637 133.145 66.2588 127.892 66.3772C122.638 66.4957 109.921 65.1176 104.336 66.6057C98.7512 68.0937 72.6201 66.5639 67.3597 66.3798C62.0998 66.1958 50.4073 66.8985 45.0002 68.2312C39.5934 69.5639 29.4124 68.1117 26.5002 67.572C23.5883 67.0323 18.6153 66.7229 16.0077 63.6034C13.4003 60.4842 12.9831 60.3417 12.0913 58.6973C10.3883 55.5069 6.30966 48.2329 3.61938 44.6612C0.256565 40.1966 0.174442 36.566 1.69552 31.6886C3.21662 26.8111 6.54568 21.7409 6.49451 19.4718C6.4442 17.2023 11.5702 11.4871 16.2248 8.96063C20.8799 6.43406 27.5827 6.28272 30.4674 5.61227ZM75.8915 10.8315C71.5231 10.022 53.7379 8.90932 45.9832 10.5977C38.2282 12.286 33.4771 10.5769 28.282 13.267C23.0869 15.957 14.9906 18.5616 14.1598 21.9099C13.3291 25.2583 10.3453 29.5636 9.33695 33.0674C8.32873 36.5711 9.89076 41.5302 12.8742 45.2466C15.6883 48.752 17.1977 51.6143 18.9488 54.9402C19.1592 55.3397 19.4437 55.6959 19.7995 55.974C22.9318 58.4221 29.7242 62.5377 35.7311 62.2883C43.6978 61.9572 51.6647 61.6262 58.736 61.7694C65.8073 61.9126 78.1459 62.5417 83.5665 61.814C88.9872 61.0864 99.866 61.2952 105.854 61.6142C111.842 61.933 120.13 59.7794 128.298 60.3519C136.466 60.9244 153.766 61.3709 163.565 61.9067C173.363 62.4424 202.12 61.3652 208.272 60.9237C214.424 60.4823 222.938 60.2906 228.94 61.2146C234.941 62.1387 238.472 60.817 246.442 60.6372C254.412 60.4575 259.488 60.4945 270.91 60.691C282.332 60.8874 289.205 60.2782 295.901 59.8245C302.596 59.3708 305.819 57.6337 314.524 57.8914C323.229 58.1491 331.431 60.2339 336.931 54.9645C342.43 49.6946 344.526 45.0313 344.971 40.6321C345.415 36.2332 346.472 34.8472 346.927 30.902C347.381 26.9566 346.923 22.7285 340.853 18.779C334.784 14.8298 331.328 14.3026 321.277 10.5943C311.225 6.88596 308.176 8.31675 299.294 8.21439C290.411 8.11204 282.8 8.13235 273.572 8.79453C264.344 9.45669 253.646 9.24325 247.867 10.1303C242.087 11.0174 223.242 11.1405 214.342 10.2818C205.442 9.42311 189.13 9.33673 183.531 10.2197C177.933 11.1027 161.807 11.3148 146.926 10.4397C132.046 9.56454 128.061 9.65496 118.283 10.0268C108.505 10.3987 98.7262 10.7705 92.9194 10.4475C87.1127 10.1244 80.2594 11.6411 75.8915 10.8315ZM24.6398 20.4252C26.4138 18.7203 32.8768 16.0018 34.7325 17.9274C36.5882 19.8532 37.7565 23.459 37.0729 25.2906C36.526 26.7559 35.9293 28.1418 35.6992 28.6515C36.5274 27.8761 38.6153 26.164 40.3407 25.5197C42.4973 24.7144 44.6742 24.816 46.4685 24.0188C48.2629 23.2216 52.2107 21.4681 55.8471 21.9914C59.4621 22.5117 63.2903 24.5234 63.3923 27.0736C63.5022 26.9244 64.1952 26.3737 66.4248 24.9314C69.8187 22.736 72.676 20.8553 74.4567 19.453C76.2374 18.0507 80.7184 15.8309 83.4662 17.1311C86.2139 18.4312 87.2975 18.2552 88.2783 21.5628C89.259 24.8702 88.37 25.647 88.2058 26.4074C89.1492 25.3772 91.5763 23.1537 93.7363 22.4995C96.4364 21.6819 98.2378 21.1871 100.07 22.0539C101.902 22.9204 104.246 22.4137 104.472 24.3761C105.897 23.2844 109.252 20.9684 111.27 20.4386C119.539 18.8239 121.5 22.9999 124 26.4079C126 29.1343 119.29 30.8637 115.685 31.3877C114.835 31.2052 112.82 31.3315 111.56 33.2967C109.984 35.7537 107.123 37.4835 105.534 39.3354C103.945 41.1875 100.376 43.69 98.4345 46.004C96.4932 48.3181 94.4015 51.9976 92.0843 53.7146C89.767 55.4317 86.8891 56.4046 85.0709 56.1429C83.2527 55.8812 81.9605 54.8511 81.4 54.107C80.8392 53.3631 76.5094 54.2168 74.4897 53.0516C72.4699 51.8864 70.2482 49.8176 70.0261 48.0064C69.8039 46.1951 67.5112 40.9503 68.9086 38.6484C70.3066 36.3466 71.0047 35.1196 71.5379 34.6535C70.4067 35.3853 68.1119 37.0314 67.9831 37.7608C67.8224 38.6725 66.4587 42.4872 64.6781 43.8897C62.8973 45.292 60.2857 50.0427 58.8775 51.8907C57.4693 53.7386 56.4267 55.7292 53.5354 56.0971C50.6441 56.465 47.978 58.7958 46.5084 57.9211C45.0388 57.0462 43.5863 56.9273 43.7231 54.9568C43.8598 52.9862 44.0242 52.2258 44.8889 50.3903C45.7537 48.5546 45.5385 47.0451 46.769 45.3525C47.9996 43.6593 50.7843 38.6026 50.9484 37.8422C51.1125 37.0815 52.104 32.8215 52.0903 32.2164C49.3971 33.3367 43.9459 35.9123 43.6861 37.25C43.3612 38.9221 42.1411 41.0687 41.0884 42.6058C40.0357 44.1431 38.8257 46.7434 38.4908 47.9617C38.1559 49.1802 38.2136 51.7517 35.8863 53.0148C33.5588 54.2781 33.0459 55.6517 30.8723 55.7008C28.6986 55.7499 21.9787 55.144 21.5345 51.5217C21.0903 47.8995 20.3118 45.4951 20.8074 43.3651C21.3029 41.2357 21.7778 38.1996 21.7678 37.7443C21.1251 38.7174 19.4006 40.4608 17.6428 39.6533C15.4453 38.6434 13.6305 38.5328 14.4953 36.6971C15.3601 34.8614 17.8279 31.7791 18.6859 29.6409C19.5438 27.5026 22.8659 22.13 24.6398 20.4252Z" fill="#F9B22E"/>
</svg>
