<svg width="357" height="69" viewBox="0 0 357 69" fill="none" xmlns="http://www.w3.org/2000/svg">
<path d="M30.4674 5.61228C33.3524 4.94169 43.4381 2.14169 51.4353 3.17206C59.4329 4.20247 74.3002 4.47198 78.8082 3.46215C83.3164 2.45232 95.0632 0.976769 105.255 2.86567C115.446 4.7546 121.776 4.1586 125.946 4.21587C130.116 4.27304 146.891 0.715823 152.352 1.80342C157.814 2.89098 173.415 3.59902 183.408 4.73573C193.402 5.87241 199.302 2.25799 213.636 2.99414C227.969 3.73026 240.646 3.29383 249.726 4.14841C258.807 5.00299 266.908 2.54987 273.805 2.99971C280.703 3.44933 298.727 -0.891617 306.373 0.60069C314.018 2.09314 325.721 6.67231 331.548 7.90305C337.375 9.13375 342.864 11.4313 345.649 14.3953C348.434 17.3595 356.651 20.0501 355.977 30.3569C355.304 40.6639 353.052 37.2343 351.777 44.9817C350.501 52.7292 345.616 61.1629 338.928 61.9193C332.24 62.6757 327.46 66.5303 325.102 66.4324C322.744 66.3343 314.137 67.9664 305.039 66.3555C295.941 64.7446 278.412 66.956 273.52 67.0664C268.63 67.1767 245.999 68.1413 242.012 68.2312C238.027 68.3211 219.867 66.6114 216.608 66.8359C213.351 67.0607 202.684 68.2098 198.155 68.312C193.627 68.4141 178.297 67.3592 175.583 67.5717C172.869 67.7843 155.299 68.1803 150.934 67.522C146.57 66.8637 133.145 66.2578 127.892 66.3763C122.639 66.4947 109.921 65.1177 104.336 66.6057C98.7507 68.0936 72.6201 66.5639 67.3597 66.3798C62.0999 66.1958 50.4073 66.8985 45.0003 68.2312C39.5934 69.5639 29.4124 68.1108 26.5002 67.571C23.5883 67.0313 18.6153 66.7219 16.0077 63.6025C13.4003 60.4833 12.9832 60.341 12.0914 58.6964C10.3883 55.506 6.30969 48.233 3.61941 44.6612C0.256511 40.1965 0.174435 36.5651 1.69553 31.6876C3.21667 26.8103 6.54565 21.7408 6.49454 19.4718C6.4435 17.2026 11.5708 11.4872 16.2258 8.96062C20.8809 6.43426 27.5829 6.28272 30.4674 5.61228ZM75.8925 10.8305C71.5247 10.021 53.7383 8.90836 45.9832 10.5967C38.2286 12.285 33.4778 10.5764 28.283 13.266C23.0881 15.956 14.991 18.5607 14.1598 21.9089C13.3292 25.2573 10.3454 29.5627 9.33696 33.0664C8.32858 36.5702 9.89066 41.5301 12.8742 45.2466C15.6884 48.7521 17.1986 51.6142 18.9498 54.9402C19.1601 55.3395 19.4439 55.6951 19.7995 55.973C22.9318 58.4211 29.7241 62.5367 35.7311 62.2873C43.6976 61.9563 51.6648 61.6252 58.736 61.7684C65.8073 61.9117 78.146 62.5417 83.5665 61.814C88.9873 61.0864 99.8661 61.2952 105.854 61.6142C111.842 61.933 120.13 59.7785 128.298 60.3509C136.466 60.9234 153.766 61.37 163.565 61.9057C173.363 62.4414 202.12 61.3642 208.272 60.9228C214.424 60.4813 222.938 60.2896 228.94 61.2137C234.941 62.1377 238.473 60.817 246.443 60.6372C254.413 60.4575 259.488 60.4936 270.91 60.69C282.332 60.8864 289.205 60.2782 295.901 59.8245C302.596 59.3708 305.819 57.6328 314.524 57.8904C323.229 58.1482 331.432 60.2334 336.932 54.9635C342.431 49.6939 344.526 45.0311 344.971 40.6321C345.415 36.233 346.472 34.8463 346.927 30.901C347.381 26.9558 346.923 22.7283 340.854 18.779C334.784 14.8294 331.328 14.3017 321.277 10.5933C311.226 6.88513 308.176 8.31575 299.294 8.21342C290.411 8.11107 282.799 8.13141 273.572 8.79356C264.344 9.4557 253.646 9.2433 247.867 10.1303C242.087 11.0174 223.242 11.1395 214.342 10.2808C205.442 9.42215 189.13 9.33577 183.531 10.2187C177.933 11.1017 161.808 11.3148 146.927 10.4397C132.046 9.56449 128.061 9.65399 118.283 10.0259C108.505 10.3978 98.7262 10.7696 92.9195 10.4465C87.113 10.1234 80.2604 11.6399 75.8925 10.8305ZM24.6398 20.4242C26.4142 18.7193 32.8769 16.0009 34.7325 17.9265C36.5881 19.852 37.7563 23.4579 37.073 25.2896C36.5262 26.7547 35.9294 28.1406 35.6992 28.6506C36.5276 27.875 38.6155 26.163 40.3407 25.5187C42.4972 24.7135 44.6743 24.816 46.4686 24.0188C48.2629 23.2216 52.2106 21.468 55.8471 21.9914C59.4621 22.5118 63.2893 24.5226 63.3913 27.0726C63.5012 26.9234 64.1952 26.3727 66.4249 24.9304C69.8187 22.735 72.676 20.8543 74.4567 19.452C76.2375 18.0497 80.7184 15.83 83.4662 17.1301C86.2139 18.4302 87.2975 18.2546 88.2783 21.5618C89.259 24.8694 88.37 25.647 88.2059 26.4074C89.1492 25.3772 91.5763 23.1527 93.7363 22.4985C96.4363 21.6809 98.2378 21.1861 100.07 22.0529C101.901 22.9195 104.245 22.4131 104.471 24.3751C105.896 23.2835 109.252 20.9684 111.27 20.4386C113.792 19.7763 118.676 19.363 120.662 19.0155C122.647 18.6682 125.739 19.2038 126.68 20.6957C127.518 20.3741 129.7 19.6291 131.721 19.2203C134.246 18.7093 136.783 18.652 138.454 20.4301C140.124 22.2078 140.32 22.8095 140.327 23.1122C140.334 23.4147 144.08 20.7584 145.874 19.9609C147.668 19.1637 150.164 17.2905 153.246 17.3722C156.329 17.454 158.671 16.7966 160.178 19.3355C161.685 21.8743 162.997 23.8123 162.512 26.396C162.026 28.9799 160.15 34.1684 159.627 35.0883C160.865 33.7487 164.025 30.812 166.756 29.7816C170.17 28.4938 171.975 28.1497 172.69 27.6795C174.46 27.2516 178.9 26.6529 182.5 27.68C186.999 28.964 184.5 32.0004 184.5 36.0003C184.5 40 180.5 42.6676 178 40.9997C176 39.6651 171.149 39.5908 168.974 39.7205C168.427 39.5816 166.982 39.7958 165.577 41.7644C163.82 44.2255 159.548 47.6515 157.596 49.5118C155.644 51.3719 154.116 55.9476 149.92 54.6803C145.723 53.4128 144.978 52.5208 145.104 50.0963C145.231 47.6722 145.197 46.1596 145.695 44.1811C146.195 42.2023 147.042 39.6098 148.269 37.766C149.496 35.9221 151.926 31.1752 151.879 29.0574C151.84 27.3632 151.352 27.1524 151.113 27.2587C150.221 27.8843 148.296 29.2899 147.73 29.908C147.022 30.6809 144.732 33.6079 143.495 34.9979C142.257 36.3881 139.451 40.5376 138.956 42.6676C138.46 44.7977 136.946 49.9781 136.078 51.6626C135.209 53.347 132.913 55.9712 130.729 55.5664C128.545 55.1617 125.66 55.8324 124.31 52.2308C123.853 53.4016 122.69 55.9601 121.695 56.83C120.451 57.9173 119.552 58.2408 117.73 57.8278C115.909 57.4149 113.91 57.1569 113.51 55.5015C113.11 53.8458 111.098 52.9826 111.579 50.2478C112.061 47.5126 111.355 40.2632 112.575 38.1168C113.795 35.9706 114.632 32.9251 115.685 31.3877C114.835 31.2051 112.82 31.331 111.56 33.2967C109.984 35.7538 107.123 37.4834 105.534 39.3354C103.945 41.1875 100.376 43.689 98.4345 46.0031C96.4932 48.317 94.4015 51.9965 92.0843 53.7137C89.767 55.4307 86.8891 56.4046 85.0709 56.1429C83.2527 55.8812 81.9605 54.8501 81.4 54.106C80.8385 53.3625 76.5093 54.2166 74.4897 53.0516C72.47 51.8864 70.2485 49.8176 70.0262 48.0065C69.8041 46.1953 67.5107 40.9492 68.9086 38.6474C70.3062 36.3462 71.0039 35.1199 71.537 34.6536C70.4055 35.3855 68.1116 37.0316 67.9831 37.7609C67.8222 38.6731 66.4583 42.4863 64.6781 43.8887C62.8975 45.2909 60.2857 50.0415 58.8775 51.8897C57.4694 53.7376 56.4267 55.7292 53.5355 56.0971C50.6441 56.4651 47.978 58.795 46.5084 57.9201C45.0388 57.0452 43.5863 56.9264 43.7231 54.9558C43.8598 52.9854 44.0242 52.2249 44.8889 50.3893C45.7536 48.5538 45.5378 47.0449 46.768 45.3525C47.9983 43.6601 50.7835 38.6039 50.9484 37.8422C51.1125 37.0819 52.1038 32.8223 52.0904 32.2164C49.3971 33.3367 43.946 35.9113 43.6861 37.249C43.3613 38.9211 42.1412 41.0676 41.0884 42.6048C40.0357 44.1421 38.8258 46.7423 38.4908 47.9607C38.1558 49.179 38.2136 51.7505 35.8863 53.0139C33.5588 54.2771 33.0458 55.6507 30.8723 55.6999C28.6987 55.7489 21.9789 55.1439 21.5345 51.5217C21.0904 47.8993 20.3118 45.4951 20.8074 43.3651C21.3031 41.235 21.7781 38.1972 21.7678 37.7434C21.1253 38.7164 19.4009 40.4601 17.6428 39.6523C15.4453 38.6424 13.6305 38.5319 14.4953 36.6961C15.3603 34.8604 17.827 31.778 18.6849 29.6399C19.5429 27.5017 22.8659 22.1291 24.6398 20.4242Z" fill="#F9B22E"/>
</svg>
