<svg width="357" height="69" viewBox="0 0 357 69" fill="none" xmlns="http://www.w3.org/2000/svg">
<path d="M30.4663 5.61269C33.3508 4.94224 43.4367 2.1423 51.4341 3.17247C59.4314 4.20286 74.2984 4.47326 78.807 3.46353C83.3151 2.4537 95.0628 0.978075 105.254 2.86703C115.446 4.75595 121.776 4.15897 125.945 4.21626C130.115 4.2734 146.889 0.717394 152.351 1.80481C157.812 2.89242 173.415 3.60036 183.408 4.73709C193.401 5.87369 199.301 2.25946 213.634 2.99553C227.968 3.73168 240.645 3.29419 249.726 4.1488C258.807 5.00337 266.907 2.55039 273.804 3.00012C280.701 3.44996 298.727 -0.891175 306.373 0.601077C314.018 2.09355 325.72 6.67265 331.548 7.90344C337.374 9.13414 342.863 11.4328 345.649 14.3967C348.434 17.3607 356.649 20.0514 355.976 30.3573C355.302 40.6642 353.051 37.2351 351.776 44.9821C350.5 52.7297 345.616 61.1643 338.928 61.9207C332.239 62.677 327.459 66.532 325.101 66.4338C322.742 66.3359 314.135 67.9668 305.038 66.3559C295.939 64.7452 278.41 66.9565 273.519 67.0668C268.628 67.1771 245.996 68.1417 242.011 68.2316C238.026 68.3215 219.864 66.6126 216.607 66.8373C213.35 67.0622 202.683 68.2112 198.154 68.3133C193.625 68.4154 178.296 67.3596 175.582 67.5721C172.867 67.7847 155.297 68.1807 150.933 67.5224C146.568 66.8642 133.143 66.2592 127.89 66.3777C122.637 66.496 109.921 65.1182 104.336 66.6061C98.7511 68.0942 72.6185 66.5643 67.3586 66.3803C62.0984 66.1963 50.4059 66.8989 44.9991 68.2316C39.5921 69.5642 29.4109 68.1121 26.4991 67.5724C23.5872 67.0327 18.615 66.7229 16.0075 63.6038C13.4002 60.4847 12.982 60.3423 12.0902 58.6978C10.387 55.5071 6.30845 48.2332 3.61825 44.6616C0.255774 40.1972 0.173423 36.5662 1.69439 31.689C3.21553 26.8116 6.54456 21.7412 6.49338 19.4722C6.44353 17.2025 11.5702 11.4873 16.2247 8.96103C20.8796 6.43462 27.5816 6.28309 30.4663 5.61269ZM75.8914 10.8319C71.523 10.0223 53.7368 8.90971 45.982 10.5981C38.2274 12.2863 33.4768 10.5774 28.2819 13.2674C23.087 15.9574 14.9908 18.562 14.1597 21.9103C13.329 25.2586 10.3453 29.5641 9.3368 33.0678C8.32857 36.5714 9.88983 41.5307 12.8731 45.247C15.6872 48.7524 17.1975 51.6148 18.9487 54.9406C19.1589 55.34 19.4428 55.6964 19.7984 55.9744C22.9306 58.4225 29.7239 62.5382 35.7309 62.2887C43.6975 61.9576 51.6646 61.6266 58.7358 61.7698C65.8071 61.913 78.1447 62.542 83.5654 61.8144C88.9859 61.0868 99.8647 61.2956 105.853 61.6146C111.841 61.9336 120.129 59.7798 128.298 60.3523C136.466 60.9248 153.766 61.3713 163.564 61.9071C173.363 62.4428 202.12 61.3656 208.272 60.9241C214.424 60.4827 222.938 60.291 228.939 61.215C234.941 62.139 238.472 60.8174 246.442 60.6376C254.412 60.4579 259.487 60.495 270.909 60.6914C282.331 60.8878 289.204 60.2786 295.9 59.8249C302.595 59.3712 305.819 57.6341 314.524 57.8918C323.229 58.1496 331.431 60.2338 336.93 54.964C342.43 49.6941 344.526 45.0316 344.971 40.6325C345.415 36.2339 346.471 34.8474 346.926 30.9024C347.38 26.9571 346.922 22.7288 340.853 18.7794C334.783 14.8302 331.327 14.3029 321.277 10.5947C311.225 6.88648 308.176 8.31712 299.293 8.21479C290.411 8.11243 282.799 8.13277 273.572 8.79492C264.344 9.45707 253.646 9.24372 247.867 10.1307C242.087 11.0178 223.241 11.1409 214.341 10.2822C205.441 9.42356 189.128 9.33712 183.53 10.2201C177.931 11.1031 161.807 11.3152 146.926 10.4401C132.045 9.56491 128.06 9.65537 118.281 10.0273C108.503 10.3991 98.725 10.771 92.9183 10.4479C87.1117 10.1249 80.2592 11.6414 75.8914 10.8319ZM24.6386 20.4256C26.4124 18.7208 32.8752 16.0027 34.7314 17.9278C36.587 19.8534 37.7561 23.4593 37.0728 25.291C36.526 26.756 35.9292 28.142 35.699 28.6519C36.5275 27.8764 38.6154 26.1643 40.3405 25.5201C42.497 24.7149 44.6742 24.8174 46.4684 24.0202C48.2628 23.223 52.2105 21.4685 55.8469 21.9918C59.4619 22.5122 63.2892 24.5239 63.3912 27.074C63.501 26.9248 64.195 26.3741 66.4247 24.9318C69.8185 22.7364 72.6759 20.8557 74.4565 19.4534C76.2374 18.0511 80.7183 15.8314 83.466 17.1315C86.2136 18.4315 87.2974 18.2559 88.2781 21.5632C89.2589 24.8708 88.3698 25.6484 88.2057 26.4088C89.1491 25.3785 91.5761 23.154 93.7362 22.4999C96.4359 21.6824 98.2369 21.1877 100.069 22.0543C101.9 22.921 104.245 22.4142 104.471 24.3765C105.896 23.2849 109.252 20.9698 111.269 20.44C113.792 19.7777 118.676 19.3644 120.662 19.0169C122.647 18.6696 125.739 19.2051 126.679 20.6971C127.518 20.3755 129.7 19.6305 131.721 19.2217C134.246 18.7107 136.783 18.6532 138.454 20.4315C140.124 22.2094 140.319 22.8109 140.326 23.1136C140.333 23.4161 144.079 20.7586 145.874 19.9613C147.668 19.1641 150.163 17.2917 153.246 17.3735C156.329 17.4554 158.67 16.7979 160.177 19.3369C161.684 21.8758 162.997 23.8135 162.511 26.3974C162.026 28.9813 160.15 34.1698 159.627 35.0896C160.865 33.75 164.024 30.8133 166.756 29.783C170.17 28.4952 171.975 28.1511 172.689 27.6809C173.405 27.2098 177.653 22.726 179.604 20.866C181.556 19.0058 183.138 16.8506 185.664 16.3396C188.189 15.8286 191.641 16.2052 192.39 17.2477C193.138 18.2898 193.148 18.7438 193.155 19.0463C193.329 18.6892 194.002 17.9989 195.308 18.0903C196.942 18.2048 198.409 18.9282 199.878 19.8031C201.348 20.6781 202.27 21.4143 202.123 22.9311C201.976 24.4478 201.47 26.1238 200.592 27.3544C203.387 25.4247 209.558 21.5219 211.874 21.3485C214.769 21.1318 218.946 21.4919 219.547 24.0511C220.149 26.6105 220.395 29.4813 219.349 31.3211C218.513 32.7922 217.957 33.8737 217.783 34.2312C218.731 33.4024 221.234 31.3384 223.661 29.7098C226.696 27.6739 231.7 24.5344 233.833 22.6701C235.594 21.2884 238.499 18.09 244.999 18.09C251.499 18.0901 250.499 25.9996 248.999 27.6809C247.499 29.3619 236.499 33.0006 234.999 35.5006C233.799 37.5005 229.898 40.3782 228.098 41.5669C227.443 41.9853 225.92 43.0386 225.07 43.9053C224.007 44.9887 222.284 48.9622 218.159 50.8715C214.033 52.7808 211.022 55.8762 208.287 55.1811C205.553 54.4861 201.196 54.1295 201.661 50.638C202.126 47.1468 202.256 44.8737 203.818 41.8117C205.38 38.7497 208.175 34.1465 208.162 33.5408C207.795 33.3473 206.887 33.2665 206.189 34.4927C205.318 36.0259 201.951 39.4317 200.164 40.5315C198.376 41.6312 196.247 43.6476 195.198 45.3361C194.148 47.0249 191.53 51.4728 189.032 53.1939C186.534 54.9151 185.159 58.2753 182.802 58.1774C180.443 58.0793 176.813 57.8585 175.504 56.0719C174.196 54.2858 173.987 53.0794 174.161 52.7723C172.295 53.0666 168.412 53.3859 167.808 52.3099C167.053 50.9648 165.586 50.2413 165.703 47.363C165.819 44.4848 168.276 40.9485 168.974 39.7219C168.427 39.5828 166.982 39.7969 165.577 41.7658C163.82 44.2269 159.548 47.6528 157.596 49.5131C155.644 51.3733 154.116 55.948 149.919 54.6807C145.722 53.4132 144.977 52.5221 145.104 50.0977C145.23 47.6733 145.196 46.1602 145.695 44.1815C146.194 42.2028 147.042 39.6111 148.269 37.7673C149.496 35.9234 151.926 31.1766 151.878 29.0587C151.84 27.3645 151.352 27.1538 151.113 27.2601C150.221 27.8857 148.295 29.2912 147.729 29.9093C147.022 30.6821 144.732 33.6093 143.495 34.9993C142.257 36.3894 139.451 40.539 138.955 42.669C138.46 44.7991 136.946 49.9795 136.077 51.6639C135.209 53.3483 132.912 55.9724 130.729 55.5677C128.545 55.163 125.66 55.8337 124.31 52.2321C123.853 53.403 122.69 55.9614 121.695 56.8313C120.451 57.9188 119.552 58.2412 117.73 57.8282C115.909 57.4153 113.91 57.1576 113.51 55.5019C113.11 53.8463 111.097 52.9832 111.579 50.2482C112.061 47.5127 111.354 40.2647 112.574 38.1182C113.794 35.9718 114.632 32.9254 115.684 31.3881C114.834 31.2055 112.82 31.3324 111.559 33.298C109.984 35.7552 107.122 37.4848 105.533 39.3368C103.943 41.1888 100.376 43.6906 98.4344 46.0044C96.4931 48.3184 94.4013 51.9978 92.0841 53.715C89.7669 55.4321 86.8889 56.4049 85.0707 56.1433C83.2525 55.8816 81.9603 54.8515 81.3998 54.1074C80.8389 53.3636 76.5094 54.2178 74.4895 53.053C72.4699 51.8878 70.2484 49.8189 70.026 48.0078C69.8039 46.1966 67.5105 40.9506 68.9085 38.6488C70.3061 36.3475 71.0037 35.1212 71.5368 34.6549C70.4056 35.3867 68.1111 37.0318 67.982 37.7613C67.8213 38.673 66.4576 42.4878 64.6769 43.8901C62.8963 45.2924 60.2856 50.0429 58.8773 51.8911C57.4692 53.7389 56.4264 55.7305 53.5353 56.0985C50.644 56.4664 47.9779 58.796 46.5082 57.9215C45.0386 57.0465 43.5861 56.9278 43.7229 54.9572C43.8597 52.9868 44.0232 52.2262 44.8878 50.3907C45.7525 48.5551 45.5376 47.0464 46.7679 45.3538C47.9981 43.6616 50.7832 38.6055 50.9482 37.8436C51.1123 37.0833 52.1035 32.8242 52.0902 32.2178C49.397 33.338 43.9457 35.9127 43.6859 37.2504C43.3612 38.9225 42.141 41.069 41.0883 42.6062C40.0355 44.1435 38.8256 46.7437 38.4906 47.962C38.1556 49.1803 38.2133 51.7519 35.8861 53.0152C33.5587 54.2784 33.0454 55.652 30.8722 55.7012C28.6985 55.7503 21.9789 55.1451 21.5344 51.523C21.0902 47.9007 20.3117 45.4965 20.8073 43.3664C21.3029 41.2366 21.7778 38.199 21.7677 37.7447C21.1251 38.7178 19.3998 40.4616 17.6417 39.6537C15.4443 38.644 13.6295 38.5331 14.4942 36.6975C15.359 34.8618 17.8268 31.7795 18.6848 29.6413C19.5427 27.5031 22.8647 22.1305 24.6386 20.4256Z" fill="#F9B22E"/>
</svg>
