<svg width="357" height="69" viewBox="0 0 357 69" fill="none" xmlns="http://www.w3.org/2000/svg">
<path d="M30.4663 5.61274C33.3509 4.94229 43.4377 2.14224 51.4352 3.17251C59.4325 4.20285 74.2995 4.47228 78.8081 3.46259C83.3164 2.45277 95.0632 0.977249 105.254 2.86611C115.446 4.75507 121.776 4.15906 125.945 4.21631C130.115 4.27359 146.889 0.716699 152.351 1.80389C157.812 2.8915 173.415 3.59945 183.408 4.73617C193.402 5.87287 199.301 2.25864 213.635 2.99461C227.968 3.73075 240.645 3.29427 249.726 4.14886C258.807 5.00346 266.907 2.55057 273.804 3.00017C280.701 3.45001 298.727 -0.892031 306.373 0.600157C314.018 2.09255 325.72 6.67265 331.548 7.9035C337.375 9.13422 342.863 11.4317 345.649 14.3958C348.434 17.36 356.651 20.0504 355.977 30.3574C355.303 40.6637 353.051 37.2343 351.776 44.9812C350.5 52.7287 345.616 61.1635 338.928 61.9198C332.24 62.6761 327.46 66.5307 325.102 66.4329C322.743 66.3349 314.136 67.9667 305.039 66.3559C295.94 64.7451 278.41 66.9565 273.519 67.0668C268.627 67.1772 245.996 68.1418 242.011 68.2317C238.025 68.3214 219.864 66.6116 216.607 66.8364C213.349 67.0613 202.682 68.2103 198.154 68.3124C193.625 68.4144 178.298 67.3598 175.583 67.5722C172.868 67.7847 155.299 68.1807 150.934 67.5225C146.569 66.8642 133.145 66.2583 127.892 66.3767C122.638 66.4951 109.921 65.1172 104.336 66.6052C98.7504 68.093 72.6204 66.5644 67.3596 66.3803C62.0996 66.1963 50.4071 66.899 45.0002 68.2316C39.5932 69.5641 29.4123 68.1112 26.5001 67.5714C23.5881 67.0318 18.6151 66.7223 16.0076 63.6029C13.4001 60.4836 12.983 60.3414 12.0912 58.6968C10.3882 55.5064 6.30959 48.2324 3.61927 44.6606C0.256541 40.1962 0.174468 36.5653 1.69541 31.688C3.21647 26.8109 6.54518 21.7415 6.49443 19.4722C6.44325 17.2032 11.5698 11.4879 16.2247 8.96109C20.8793 6.43478 27.5812 6.283 30.4663 5.61274ZM75.8914 10.831C71.5227 10.0214 53.7379 8.9089 45.9831 10.5971C38.2284 12.2854 33.4769 10.5764 28.2819 13.2665C23.0869 15.9564 14.9907 18.5612 14.1597 21.9094C13.329 25.2577 10.3452 29.5632 9.33684 33.0669C8.32872 36.5706 9.88971 41.5307 12.8731 45.2471C15.6874 48.7527 17.1975 51.6146 18.9487 54.9407C19.1591 55.3401 19.4437 55.6955 19.7994 55.9735C22.9316 58.4215 29.7241 62.5371 35.731 62.2877C43.6976 61.9567 51.6646 61.6257 58.7358 61.7689C65.8068 61.9121 78.1444 62.5419 83.5655 61.8145C88.9858 61.0869 99.8647 61.2957 105.853 61.6146C111.841 61.9336 120.129 59.779 128.298 60.3514C136.466 60.9239 153.766 61.3704 163.564 61.9062C173.363 62.4419 202.119 61.3647 208.272 60.9232C214.424 60.4818 222.938 60.2901 228.939 61.2141C234.941 62.1382 238.472 60.8175 246.442 60.6377C254.412 60.4579 259.488 60.494 270.91 60.6905C282.332 60.8869 289.206 60.2777 295.901 59.824C302.596 59.3702 305.819 57.6332 314.524 57.8909C323.229 58.1486 331.431 60.2332 336.93 54.964C342.43 49.6943 344.526 45.0316 344.971 40.6326C345.415 36.2335 346.471 34.8465 346.926 30.9015C347.38 26.9562 346.923 22.7289 340.853 18.7795C334.783 14.8301 331.328 14.3021 321.277 10.5938C311.225 6.88553 308.176 8.31622 299.294 8.21387C290.411 8.11151 282.799 8.13184 273.572 8.794C264.344 9.45614 253.646 9.24373 247.867 10.1308C242.087 11.0178 223.242 11.14 214.342 10.2813C205.442 9.42263 189.13 9.33626 183.531 10.2192C177.932 11.1021 161.807 11.3153 146.926 10.4401C132.046 9.56501 128.06 9.65445 118.283 10.0263C108.505 10.3982 98.7261 10.77 92.9193 10.447C87.1127 10.124 80.2592 11.6406 75.8914 10.831ZM24.6397 20.4246C26.4136 18.7198 32.8766 16.0012 34.7324 17.9269C36.5881 19.8526 37.7565 23.4585 37.0728 25.2901C36.5259 26.7553 35.9292 28.1413 35.6991 28.651C36.5273 27.8756 38.6153 26.1635 40.3406 25.5192C42.4972 24.7138 44.6741 24.8155 46.4684 24.0183C48.2628 23.2211 52.2105 21.4676 55.847 21.9909C59.462 22.5112 63.2902 24.5229 63.3922 27.073C63.5021 26.9239 64.1952 26.3731 66.4247 24.9309C69.8185 22.7355 72.6758 20.8548 74.4566 19.4525C76.2373 18.0502 80.7183 15.8304 83.4661 17.1306C86.2139 18.4307 87.2974 18.2547 88.2782 21.5623C89.2588 24.8694 88.371 25.6465 88.2067 26.4069C89.1502 25.3765 91.5765 23.1531 93.7362 22.499C96.4363 21.6813 98.2377 21.1865 100.07 22.0533C101.901 22.92 104.246 22.4131 104.472 24.3756C105.897 23.284 109.252 20.968 111.269 20.4381C113.792 19.7758 118.676 19.3635 120.662 19.016C122.647 18.6685 125.741 19.2038 126.681 20.6961C127.519 20.3745 129.701 19.6295 131.722 19.2207C134.247 18.7098 136.784 18.6521 138.455 20.4306C140.126 22.2089 140.321 22.8101 140.327 23.1126C140.334 23.4152 144.081 20.7576 145.875 19.9604C147.669 19.1631 150.165 17.2908 153.247 17.3726C156.33 17.4543 158.671 16.7963 160.178 19.335C161.685 21.8739 162.997 23.8126 162.512 26.3965C162.026 28.9804 160.15 34.1675 159.627 35.0877C160.865 33.7481 164.025 30.8113 166.757 29.7811C170.171 28.4935 171.975 28.1501 172.69 27.68C173.404 27.2099 177.652 22.7256 179.604 20.8651C181.556 19.005 183.138 16.8498 185.664 16.3387C188.189 15.8276 191.641 16.2042 192.39 17.2468C193.138 18.2893 193.148 18.7429 193.155 19.0454C193.328 18.6884 194.002 17.9968 195.309 18.0884C196.943 18.2029 198.409 18.9273 199.878 19.8022C201.348 20.6772 202.271 21.4133 202.124 22.9301C201.977 24.4468 201.471 26.123 200.593 27.3535C203.388 25.4238 209.559 21.5209 211.875 21.3475C214.77 21.131 218.946 21.4909 219.547 24.0502C220.149 26.6096 220.395 29.4794 219.349 31.3192C218.512 32.7911 217.956 33.8732 217.783 34.2303C218.731 33.4017 221.234 31.3377 223.662 29.7089C226.697 27.6729 231.701 24.5325 233.834 22.6682C235.967 20.8041 237.573 19.7087 240.27 18.7398C242.966 17.771 248.752 17.1862 249.535 19.7411C250.317 22.2964 252.129 22.2563 250.185 24.4191C248.24 26.5819 244.89 30.7438 244.203 32.4241C243.516 34.1047 238.604 41.3285 238.993 42.5305C239.533 42.367 240.857 41.55 241.827 39.5909C243.041 37.142 246.541 31.6148 247.949 29.7667C249.357 27.9188 253.807 24.3371 255.051 23.2495C256.295 22.162 261.138 19.9342 262.789 20.8048C264.44 21.6757 265.537 22.1048 265.732 22.7058C267.14 20.8577 270.17 16.975 271.023 16.2293C272.089 15.2973 274.963 14.1729 278.21 13.4943C281.457 12.8157 283.816 12.9144 284.769 15.0118C285.723 17.1091 286.5 18.4993 284 21.4996C281 25.499 273.202 29.4099 272.232 29.6723C271.299 29.7911 269.334 30.4545 268.722 32.1583L268.596 32.5431C267.785 34.8041 264.582 37.7581 263.383 39.1047C262.146 40.4947 260.744 42.6455 259.893 45.0863C259.042 47.527 257.142 51.6561 254.815 52.9196C252.487 54.1829 250.699 55.2822 248.686 54.4195C246.673 53.5569 245.224 53.5894 245.19 52.0768C245.156 50.5644 245.857 49.4894 246.379 48.5696C245.904 48.9335 244.706 49.9089 243.714 50.8998C242.473 52.1386 240.336 53.8517 238.884 53.7331C237.431 53.6147 232.739 54.4762 230.87 51.9456C229 49.415 227.735 49.5949 227.869 47.473C228.002 45.3512 227.773 43.2372 228.098 41.565C227.443 41.9834 225.92 43.0367 225.07 43.9034C224.007 44.9868 222.284 48.9613 218.159 50.8706C214.033 52.7798 211.022 55.8742 208.288 55.1792C205.554 54.4841 201.197 54.1286 201.662 50.637C202.127 47.1456 202.256 44.872 203.818 41.8098C205.379 38.7484 208.175 34.1468 208.163 33.5398C207.796 33.3463 206.888 33.2654 206.19 34.4918C205.319 36.0249 201.953 39.4306 200.165 40.5305C198.378 41.6302 196.248 43.6457 195.199 45.3342C194.149 47.0226 191.531 51.4707 189.033 53.192C186.534 54.9132 185.16 58.2737 182.802 58.1755C180.443 58.0774 176.814 57.8566 175.505 56.07C174.197 54.284 173.988 53.0785 174.162 52.7713C172.296 53.0657 168.412 53.3851 167.808 52.309C167.053 50.9639 165.587 50.2401 165.703 47.3621C165.819 44.4839 168.277 40.9476 168.975 39.7209C168.428 39.5819 166.982 39.7959 165.577 41.7649C163.82 44.2261 159.547 47.6521 157.596 49.5122C155.644 51.3725 154.116 55.9472 149.919 54.6798C145.723 53.4123 144.977 52.521 145.104 50.0968C145.231 47.6723 145.196 46.1593 145.695 44.1806C146.194 42.2017 147.042 39.6093 148.269 37.7654C149.496 35.9216 151.927 31.1757 151.879 29.0578C151.841 27.3646 151.353 27.1524 151.114 27.2582C150.222 27.8837 148.296 29.2893 147.729 29.9074C147.022 30.6801 144.733 33.6083 143.496 34.9983C142.258 36.3884 139.452 40.538 138.956 42.6681C138.461 44.7982 136.946 49.9776 136.077 51.662C135.209 53.3465 132.912 55.9716 130.729 55.5668C128.545 55.1622 125.661 55.832 124.311 52.2302C123.854 53.4009 122.691 55.9604 121.696 56.8304C120.452 57.9179 119.553 58.2402 117.731 57.8273C115.91 57.4143 113.91 57.1568 113.51 55.501C113.11 53.8452 111.097 52.9823 111.579 50.2473C112.061 47.5121 111.355 40.2639 112.575 38.1172C113.795 35.9708 114.633 32.9244 115.685 31.3872C114.836 31.2046 112.82 31.3306 111.559 33.2961C109.984 35.7532 107.123 37.4829 105.534 39.3349C103.945 41.1869 100.377 43.6895 98.4354 46.0035C96.494 48.3175 94.4015 51.997 92.0842 53.7141C89.7669 55.4311 86.8889 56.4041 85.0708 56.1424C83.2529 55.8807 81.9614 54.8505 81.4009 54.1065C80.8404 53.3623 76.5094 54.2163 74.4896 53.0511C72.4698 51.8858 70.2481 49.817 70.026 48.0059C69.8038 46.1945 67.5116 40.9495 68.9095 38.6479C70.3074 36.3461 71.0046 35.1191 71.5378 34.653C70.4066 35.3848 68.1117 37.0309 67.983 37.7603C67.8223 38.672 66.4586 42.4868 64.6779 43.8891C62.8972 45.2915 60.2856 50.0422 58.8774 51.8901C57.4692 53.7381 56.4267 55.7287 53.5353 56.0966C50.6439 56.4645 47.9779 58.7955 46.5083 57.9206C45.0387 57.0456 43.5862 56.9268 43.7229 54.9563C43.8597 52.9857 44.0242 52.2252 44.8888 50.3897C45.7536 48.554 45.5384 47.0445 46.7689 45.3519C47.9995 43.6589 50.7852 38.602 50.9492 37.8417C51.1135 37.0805 52.1039 32.8209 52.0902 32.2159C49.3969 33.3362 43.9458 35.9118 43.686 37.2495C43.3611 38.9215 42.141 41.0682 41.0883 42.6053C40.0356 44.1426 38.8256 46.7429 38.4906 47.9611C38.1558 49.1797 38.2134 51.7512 35.8862 53.0143C33.5587 54.2776 33.0458 55.6513 30.8722 55.7003C28.6985 55.7493 21.9795 55.1435 21.5354 51.5211C21.0912 47.8989 20.3117 45.4946 20.8073 43.3645C21.3028 41.2352 21.7777 38.1991 21.7677 37.7438C21.1249 38.7169 19.4005 40.4605 17.6427 39.6527C15.4452 38.6429 13.6304 38.5323 14.4952 36.6966C15.36 34.8609 17.8278 31.7786 18.6858 29.6403C19.5437 27.5021 22.8658 22.1295 24.6397 20.4246Z" fill="#F9B22E"/>
</svg>
