<svg width="357" height="69" viewBox="0 0 357 69" fill="none" xmlns="http://www.w3.org/2000/svg">
<path d="M30.4667 5.61279C33.3513 4.94233 43.438 2.14213 51.4355 3.17256C59.4331 4.20293 74.3004 4.47342 78.8084 3.46362C83.3168 2.45378 95.0635 0.97816 105.255 2.86714C115.446 4.75609 121.776 4.15906 125.946 4.21636C130.116 4.27357 146.89 0.717363 152.351 1.80492C157.813 2.89252 173.415 3.59948 183.409 4.73623C193.402 5.87289 199.301 2.25954 213.635 2.99563C227.969 3.73179 240.646 3.29427 249.727 4.14891C258.807 5.0035 266.908 2.55047 273.805 3.00023C280.702 3.45003 298.728 -0.891226 306.373 0.601184C314.018 2.09368 325.721 6.67284 331.548 7.90355C337.375 9.13426 342.864 11.4318 345.649 14.3958C348.435 17.3599 356.65 20.051 355.977 30.3575C355.303 40.6639 353.051 37.2347 351.776 44.9823C350.501 52.7297 345.616 61.1645 338.928 61.9208C332.24 62.677 327.461 66.5315 325.102 66.4339C322.744 66.3357 314.137 67.9669 305.039 66.356C295.941 64.745 278.411 66.9566 273.52 67.0669C268.628 67.1772 245.997 68.1419 242.012 68.2317C238.026 68.3216 219.865 66.6126 216.607 66.8374C213.35 67.0622 202.683 68.2103 198.155 68.3125C193.626 68.4145 178.296 67.3597 175.582 67.5722C172.867 67.7848 155.299 68.1807 150.934 67.5225C146.57 66.8642 133.144 66.2593 127.891 66.3778C122.638 66.4961 109.921 65.1182 104.336 66.6062C98.7515 68.0943 72.619 66.5644 67.359 66.3804C62.0988 66.1964 50.4063 66.899 44.9995 68.2317C39.5928 69.5641 29.4131 68.1123 26.5005 67.5725C23.5887 67.0328 18.6157 66.723 16.0079 63.6039C13.4008 60.485 12.9831 60.3417 12.0916 58.6978C10.3886 55.5075 6.30899 48.2335 3.61866 44.6617C0.255975 40.1972 0.174852 36.5663 1.69578 31.6891C3.21677 26.8119 6.54547 21.7416 6.49477 19.4723C6.4441 17.203 11.5703 11.4877 16.2251 8.96114C20.88 6.43467 27.5819 6.28318 30.4667 5.61279ZM75.8918 10.8311C71.5237 10.0215 53.7385 8.90987 45.9834 10.5982C38.2285 12.2866 33.4774 10.5774 28.2823 13.2675C23.0872 15.9576 14.9907 18.562 14.1601 21.9104C13.3292 25.2588 10.3455 29.5643 9.33721 33.0679C8.32927 36.5716 9.89021 41.5309 12.8735 45.2471C15.6876 48.7525 17.1979 51.6148 18.9491 54.9407C19.1594 55.3401 19.4441 55.6965 19.7997 55.9745C22.9323 58.4226 29.7247 62.5384 35.7313 62.2888C43.6981 61.9577 51.6649 61.6267 58.7362 61.7699C65.8074 61.9131 78.1451 62.5421 83.5658 61.8145C88.9863 61.0869 99.8651 61.2957 105.853 61.6147C111.841 61.9337 120.13 59.7799 128.298 60.3524C136.467 60.9249 153.766 61.3705 163.565 61.9062C173.364 62.4419 202.121 61.3657 208.273 60.9242C214.425 60.4828 222.938 60.2911 228.94 61.2151C234.941 62.1391 238.472 60.8175 246.442 60.6377C254.412 60.458 259.488 60.4951 270.91 60.6915C282.332 60.8879 289.205 60.2787 295.9 59.825C302.596 59.3713 305.819 57.6332 314.524 57.8909C323.229 58.1487 331.432 60.2337 336.931 54.9641C342.43 49.6943 344.526 45.0317 344.971 40.6326C345.416 36.2338 346.471 34.8472 346.926 30.9025C347.381 26.9572 346.923 22.729 340.853 18.7795C334.784 14.8302 331.328 14.303 321.277 10.5948C311.225 6.88642 308.177 8.31724 299.294 8.21489C290.411 8.11254 282.8 8.13286 273.572 8.79503C264.344 9.4572 253.647 9.24379 247.867 10.1308C242.088 11.0179 223.242 11.141 214.342 10.2823C205.443 9.42359 189.129 9.33721 183.53 10.2202C177.932 11.1032 161.807 11.3153 146.926 10.4402C132.046 9.56501 128.06 9.6545 118.282 10.0264C108.504 10.3983 98.7254 10.7701 92.9187 10.447C87.1121 10.1241 80.2595 11.6406 75.8918 10.8311ZM24.639 20.4247C26.4128 18.7199 32.8757 16.0018 34.7318 17.927C36.5874 19.8526 37.7565 23.4584 37.0732 25.2901C36.5264 26.7552 35.9296 28.1411 35.6994 28.6511C36.5278 27.8755 38.6149 26.1636 40.3399 25.5193C42.4966 24.7139 44.6744 24.8166 46.4688 24.0193C48.2632 23.2221 52.211 21.4676 55.8473 21.991C59.4622 22.5113 63.2896 24.5231 63.3916 27.0731C63.5014 26.9239 64.1954 26.3732 66.4251 24.9309C69.8188 22.7356 72.6763 20.8548 74.4569 19.4525C76.2378 18.0502 80.7187 15.8305 83.4664 17.1306C86.2139 18.4306 87.2968 18.2553 88.2775 21.5623C89.2581 24.8692 88.3704 25.6467 88.2061 26.407C89.1496 25.3766 91.5767 23.1531 93.7366 22.499C96.4363 21.6815 98.2372 21.1868 100.069 22.0534C101.901 22.9202 104.245 22.4133 104.471 24.3756C105.896 23.284 109.252 20.9689 111.27 20.4391C113.792 19.7769 118.675 19.3635 120.661 19.016C122.647 18.6686 125.74 19.2041 126.68 20.6962C127.518 20.3746 129.701 19.6296 131.721 19.2208C134.247 18.7098 136.783 18.6523 138.454 20.4306C140.125 22.2086 140.32 22.8101 140.327 23.1127C140.334 23.4153 144.08 20.7577 145.874 19.9605C147.669 19.1632 150.164 17.2909 153.246 17.3727C156.329 17.4545 158.67 16.7971 160.177 19.336C161.684 21.8749 162.997 23.8127 162.512 26.3965C162.026 28.9804 160.15 34.1689 159.627 35.0888C160.865 33.7492 164.025 30.8124 166.756 29.7821C170.171 28.4943 171.976 28.1502 172.69 27.68C173.405 27.2088 177.653 22.7251 179.604 20.8652C181.556 19.005 183.138 16.8497 185.664 16.3387C188.19 15.8278 191.642 16.2043 192.39 17.2468C193.138 18.2889 193.149 18.7429 193.156 19.0455C193.329 18.6883 194.002 17.998 195.308 18.0895C196.942 18.204 198.409 18.9273 199.879 19.8023C201.348 20.6772 202.27 21.4134 202.123 22.9302C201.976 24.447 201.47 26.123 200.592 27.3535C203.388 25.4238 209.559 21.5209 211.874 21.3476C214.769 21.131 218.946 21.491 219.548 24.0503C220.149 26.6097 220.394 29.4805 219.348 31.3203C218.512 32.7912 217.957 33.8728 217.784 34.2303C218.732 33.4015 221.234 31.3375 223.662 29.709C226.697 27.673 231.701 24.5335 233.834 22.6692C235.966 20.8049 237.573 19.7088 240.269 18.7399C242.966 17.771 248.753 17.1868 249.535 19.7421C250.318 22.297 252.129 22.2565 250.184 24.4191C248.239 26.582 244.89 30.7439 244.203 32.4242C243.516 34.1046 238.604 41.3282 238.994 42.5306C239.534 42.3669 240.856 41.5499 241.827 39.5909C243.04 37.142 246.54 31.6149 247.948 29.7668C249.357 27.9188 253.807 24.337 255.051 23.2495C256.296 22.1619 261.139 19.9341 262.789 20.8049C264.439 21.6755 265.536 22.1051 265.731 22.7058C267.139 20.858 270.169 16.9767 271.022 16.2304C272.089 15.2982 274.963 14.174 278.21 13.4953C281.457 12.8168 283.815 12.9146 284.769 15.0119C285.722 17.1092 285.975 20.2817 284.932 22.2728C283.89 24.2633 282.684 27.0144 282.516 27.6245C283.451 26.1906 285.749 23.0715 287.465 22.0642L289.156 21.0757C290.909 20.0572 292.788 18.9934 294.267 18.2791C296.239 17.3265 296.925 15.6463 299.509 17.7066C302.093 19.7672 303.05 22.0161 301.997 23.5534C300.944 25.0906 299.553 27.6949 298.306 28.631C297.308 29.38 296.96 30.5784 296.911 31.084C297.029 30.93 297.584 30.3729 298.867 29.3754C300.469 28.1286 303.856 25.6305 304.724 23.9461C305.592 22.2617 306.065 19.0723 308.204 17.5105C310.344 15.9487 314.644 13.7327 316.106 14.3051C317.569 14.8775 318.662 15.1561 319.038 15.753C319.454 15.441 321.085 14.8894 324.282 15.1806C328.277 15.5445 327.388 16.3213 328.147 17.8177C328.905 19.3144 330.303 25.0341 330.023 28.6727C329.742 32.3113 327.999 35.3779 328.577 36.8783C329.154 38.3788 330.487 41.2238 329.622 43.0594C328.758 44.8951 327.343 46.4405 324.971 45.7373C322.599 45.034 320.596 44.625 320.558 42.961C320.521 41.2974 319.977 41.3094 320.463 38.7258C320.948 36.1419 320.883 33.2674 320.323 32.5233C319.763 31.7794 319.772 32.2335 319.082 33.7625C318.392 35.2913 318.046 36.0558 316.991 37.4415C315.934 38.8274 314.571 42.6424 312.978 44.3432C311.385 46.044 308.927 49.5805 305.851 49.8012C302.775 50.022 301.531 51.1092 300.404 49.3185C299.276 47.5279 297.475 48.0226 298.504 45.4267C299.533 42.8306 300.062 42.2128 300.048 41.6077C299.503 41.5698 298.17 41.8926 297.191 43.4881C295.968 45.4832 295.294 47.7688 293.336 49.3265C291.377 50.8841 291.945 51.9307 289.59 51.9839C287.235 52.037 286.545 53.566 284.877 51.9388C283.209 50.3116 282.125 50.4871 281.906 48.8272C281.688 47.1674 282.183 45.0373 282.522 43.9703C282.216 43.8263 281.362 43.9981 280.389 45.8353C279.173 48.1329 278.499 50.4181 275.779 50.3281C273.058 50.2381 273.065 50.5401 270.857 49.0764L270.703 48.9744C268.573 47.5641 267.006 46.5264 267.477 43.8554C267.959 41.1206 268.096 39.1501 269.145 37.4617C270.194 35.7733 271.91 31.4969 272.232 29.6733C271.268 29.796 269.205 30.4983 268.667 32.3267C267.993 34.6121 264.62 37.7147 263.383 39.1048C262.145 40.4948 260.744 42.6455 259.893 45.0863C259.041 47.5271 257.141 51.6563 254.814 52.9196C252.487 54.1829 250.699 55.2829 248.686 54.4205C246.673 53.5579 245.224 53.5901 245.19 52.0778C245.156 50.5652 245.856 49.4895 246.379 48.5697C245.904 48.9337 244.705 49.909 243.713 50.8999C242.472 52.1386 240.337 53.8515 238.884 53.7331C237.431 53.6146 232.738 54.4773 230.869 51.9466C229 49.4158 227.736 49.595 227.869 47.4731C228.002 45.3514 227.773 43.2381 228.098 41.566C227.443 41.9844 225.92 43.0377 225.07 43.9044C224.007 44.9878 222.284 48.9613 218.159 50.8706C214.034 52.7799 211.022 55.8753 208.288 55.1802C205.554 54.4852 201.196 54.1286 201.661 50.6371C202.126 47.1459 202.256 44.8729 203.818 41.8108C205.38 38.7489 208.175 34.1458 208.162 33.5399C207.795 33.3464 206.887 33.2656 206.19 34.4918C205.318 36.025 201.952 39.4308 200.164 40.5306C198.377 41.6303 196.248 43.6458 195.198 45.3342C194.149 47.0227 191.53 51.4718 189.032 53.193C186.534 54.9142 185.16 58.2743 182.802 58.1766C180.444 58.0784 176.814 57.8576 175.505 56.0711C174.196 54.2849 173.987 53.0785 174.161 52.7714C172.295 53.0657 168.413 53.385 167.808 52.3091C167.053 50.964 165.587 50.2404 165.703 47.3621C165.819 44.4839 168.277 40.9476 168.974 39.721C168.427 39.582 166.982 39.7961 165.577 41.7649C163.82 44.226 159.548 47.652 157.596 49.5123C155.645 51.3724 154.117 55.9471 149.92 54.6798C145.723 53.4123 144.978 52.5213 145.104 50.0968C145.231 47.6724 145.197 46.1594 145.696 44.1806C146.195 42.2019 147.043 39.6102 148.269 37.7664C149.497 35.9226 151.926 31.1757 151.879 29.0579C151.841 27.3636 151.353 27.1529 151.113 27.2592C150.221 27.8848 148.296 29.2903 147.73 29.9085C147.022 30.6812 144.732 33.6084 143.495 34.9984C142.258 36.3885 139.451 40.5381 138.956 42.6681C138.46 44.7982 136.946 49.9786 136.078 51.663C135.21 53.3474 132.913 55.9715 130.729 55.5669C128.545 55.1621 125.66 55.8328 124.31 52.2313C123.853 53.4021 122.691 55.9606 121.696 56.8305C120.451 57.9179 119.552 58.2403 117.731 57.8273C115.909 57.4144 113.91 57.1568 113.51 55.501C113.11 53.8454 111.097 52.9823 111.579 50.2473C112.061 47.5121 111.354 40.2639 112.574 38.1173C113.794 35.9709 114.632 32.9245 115.685 31.3873C114.835 31.2046 112.82 31.3315 111.56 33.2972C109.984 35.7543 107.123 37.483 105.533 39.335C103.944 41.187 100.376 43.6896 98.4347 46.0036C96.4935 48.3175 94.4017 51.9969 92.0845 53.7141C89.7673 55.4312 86.8894 56.404 85.0711 56.1424C83.2529 55.8807 81.9607 54.8506 81.4002 54.1065C80.8395 53.3626 76.5099 54.2169 74.4899 53.0521C72.4703 51.887 70.2488 49.818 70.0264 48.0069C69.8043 46.1958 67.5109 40.9497 68.9088 38.6479C70.3065 36.3466 71.0041 35.1203 71.5372 34.6541C70.406 35.3859 68.1115 37.0309 67.9823 37.7604C67.8217 38.6721 66.458 42.4869 64.6773 43.8892C62.8967 45.2915 60.286 50.042 58.8777 51.8902C57.4695 53.7381 56.4262 55.7297 53.5347 56.0977C50.6437 56.4657 47.9782 58.795 46.5086 57.9206C45.039 57.0457 43.5855 56.927 43.7223 54.9563C43.8591 52.9858 44.0235 52.2253 44.8882 50.3898C45.7529 48.5542 45.538 47.0455 46.7683 45.353C47.9985 43.6607 50.7835 38.6047 50.9486 37.8427C51.1127 37.0825 52.1038 32.8234 52.0906 32.2169C49.3974 33.3372 43.9461 35.9118 43.6863 37.2495C43.3616 38.9216 42.1414 41.0681 41.0887 42.6053C40.0359 44.1426 38.825 46.7428 38.49 47.9612C38.1551 49.1797 38.2129 51.7512 35.8855 53.0144C33.5583 54.2776 33.0452 55.6514 30.8716 55.7004C28.6975 55.7493 21.9793 55.144 21.5347 51.5222C21.0906 47.9 20.3112 45.4956 20.8067 43.3656C21.3023 41.2357 21.7782 38.1982 21.7681 37.7439C21.1255 38.7169 19.4002 40.4607 17.6421 39.6528C15.4447 38.6431 13.6298 38.5323 14.4946 36.6967C15.3594 34.861 17.8272 31.7786 18.6852 29.6404C19.5431 27.5022 22.8651 22.1296 24.639 20.4247Z" fill="#F9B22E"/>
</svg>
