<svg width="193" height="183" viewBox="0 0 193 183" fill="none" xmlns="http://www.w3.org/2000/svg">
<path d="M120.032 2.31555C130.532 -0.684374 134.532 -1.18429 145.032 3.31555C155.532 7.81543 170.032 18.3155 172.532 24.3156C175.032 30.3155 173.032 52.3154 179.032 61.8156C185.032 71.3154 192.532 80.8157 192.032 89.3156C191.532 97.8154 178.032 123.315 171.032 130.816C164.032 138.315 164.032 159.315 159.032 162.816C154.032 166.316 137.032 179.315 129.532 179.816C122.032 180.316 112.032 179.816 98.5322 179.816C85.0322 179.816 69.0322 186.316 58.0322 179.816C47.0324 173.316 48.5322 169.816 42.0322 163.316C35.5322 156.816 23.032 155.816 14.5322 147.816C10.6988 143.815 3.23224 133.415 4.03222 123.816C5.03196 111.816 -0.467772 104.815 0.0322191 98.8156C0.532275 92.816 2.03237 89.815 6.03222 75.8156C10.0322 61.8156 14.5322 43.3154 16.0322 33.3156C17.5325 23.3159 25.5324 16.8155 35.5322 14.8156C45.5322 12.8155 57.0323 5.31555 65.0322 4.31555C73.0322 3.3156 80.5322 7.81555 86.5322 7.81555C92.5322 7.81555 109.532 5.31555 120.032 2.31555ZM120.536 11.8156C106.036 9.8156 96.036 16.3154 88.0361 17.8156C80.0363 19.3155 61.0363 16.8157 52.5361 17.8156C44.0363 18.8155 34.5363 25.8157 30.5361 32.8156C26.5362 39.8155 24.036 54.3157 19.5361 68.3156C15.0363 82.3151 11.0363 92.8153 10.0361 96.8156C9.03613 100.816 16.8421 115.399 21.0361 130.816C22.5324 136.316 24.5362 139.316 26.5361 143.316C28.1485 146.54 31.0362 147.816 45.5361 153.816C60.0357 159.815 58.5363 166.816 63.5361 170.816C68.5361 174.815 74.5362 174.816 82.5361 171.816C90.5362 168.816 104.036 169.816 111.536 170.816C119.036 171.815 130.036 169.316 135.036 166.816C140.036 164.315 151.536 150.815 154.036 142.816C156.536 134.815 166.536 120.315 170.536 115.816C174.536 111.315 181.536 98.8154 181.036 93.8156C180.536 88.8152 175.036 75.3154 170.536 68.8156C166.036 62.3154 167.536 43.8154 165.036 33.8156C162.536 23.816 158.536 23.8155 147.536 17.8156C136.536 11.8155 135.036 13.8155 120.536 11.8156ZM95.0322 26.8156C103.532 23.3156 109.032 22.3156 116.032 22.8156C123.032 23.3156 144.532 25.3157 149.032 31.8156C153.532 38.3155 155.532 58.3155 160.532 68.3156C165.532 78.3155 166.532 98.8154 162.532 105.316C158.532 111.815 146.532 126.815 142.032 133.816C137.532 140.816 124.532 155.315 113.032 155.816C101.532 156.316 95.5321 152.816 76.0322 151.316C56.5323 149.816 44.1336 145.316 39.0322 136.316C34.6988 129.315 25.9322 113.115 25.5322 104.316C25.0322 93.3158 24.5323 88.8155 28.0322 82.8156C31.5322 76.8154 36.0323 63.3154 38.5322 53.3156C41.0322 43.3158 46.5323 36.3156 51.0322 34.8156C55.5328 33.3155 86.5322 30.3155 95.0322 26.8156ZM129.277 46.0001C126.277 43.0002 121.777 44.0001 117.277 44.5001C112.777 45.0002 112.277 47.5002 110.777 51.0001C109.277 54.5 108.277 57.0002 105.777 60.5001C103.277 64.0002 95.7773 71.5001 94.7773 73.5001C93.7774 75.5 92.7773 77.5001 91.7773 78.0001C90.7765 78.4984 82.2772 65 78.7773 60.5001C75.2775 56.0003 77.2771 56.9998 74.7773 52.5001C72.2773 48.0002 67.7773 48.0001 63.2773 48.0001C58.7774 48.0002 55.7773 50.0001 53.2773 52.5001C50.7775 55.0001 50.2773 59.0002 50.2773 63.0001C50.2777 66.9999 58.2775 70.0002 63.2773 72.5001C68.2772 75.0001 71.7774 79.5001 76.7773 82.0001C81.7772 84.5001 82.2773 86.0002 81.2773 89.0001C80.2765 92.0004 65.2772 100.5 62.2773 103.5C59.2774 106.5 57.2772 107 51.2773 110C45.2775 113 45.7773 113.5 46.2773 121.5C46.6777 127.9 58.1107 129.5 63.7773 129.5C65.2773 129.534 66.2775 128 67.7773 126.5C69.2773 125 72.7773 117 74.7773 114.5C76.7773 112 78.7775 110 81.7773 108C84.7772 106 85.7773 104.5 86.2773 102C86.7774 99.5002 92.7772 98.5002 94.7773 99.0001C96.7773 99.5002 97.2774 101.5 100.277 105.5C103.277 109.5 111.277 118 113.777 121.5C116.277 125 115.277 124.5 118.277 129C121.183 133.359 122.213 129.742 126.82 129.057L127.734 128.943C132.341 128.252 133.34 124.406 135.277 121.5C137.277 118.5 135.277 110.5 133.277 107.5C131.277 104.5 126.777 103.5 122.777 101.5C118.777 99.5 113.277 94.5001 110.277 91.0001C107.278 87.5005 104.778 87.4997 104.777 86.0001C104.777 84.5002 105.777 83.9999 107.777 82.0001C109.777 80.0003 118.277 74.0003 121.277 72.0001C124.277 70.0002 130.277 67.5001 132.777 66.0001C135.277 64.5002 136.277 58.5001 135.277 54.0001C134.277 49.5003 132.277 49 129.277 46.0001Z" fill="white"/>
</svg>
