<svg width="339" height="210" viewBox="0 0 339 210" fill="none" xmlns="http://www.w3.org/2000/svg">
<g clip-path="url(#clip0_299_3)">
<path d="M2.00287 36.7692C2.80405 42.4918 3.33818 60.0173 3.50509 68.0647C3.58869 71.6413 1.50222 77.9005 3.50509 89.9716C5.50796 102.043 4.50665 97.1249 4.50665 104.725C4.50665 112.326 3.00443 128.868 4.50665 136.468C6.00886 144.068 0 160.163 0 176.258C0 192.353 1.50222 190.117 1.50222 197.271C1.50222 204.424 2.00295 202.636 5.50812 206.659C9.01329 210.683 58.0857 208.448 78.616 208.448C99.1462 208.448 123.182 210.683 138.705 209.789C154.227 208.895 182.77 207.106 193.285 208.448C203.801 209.789 235.347 209.342 245.362 208.448C255.377 207.553 283.919 206.659 296.437 207.106C308.956 207.553 316.467 208.448 322.476 208.448C328.484 208.448 336.496 207.553 337.498 203.083C338.499 198.612 337.498 191.906 337.498 183.858C337.498 175.811 339 165.975 337.498 153.904C335.996 141.833 337.498 135.574 337.498 127.526C337.498 119.479 339 102.937 337.498 88.1833C335.996 73.4297 335.495 74.3239 335.996 65.3823C336.496 56.4407 337.498 54.6524 337.498 43.4754C337.498 32.2984 339 27.3805 339 17.9919C339 8.60322 336.997 7.60035 335.996 4.47079C334.994 1.34124 319.471 1.89703 307.453 3.23827C295.436 4.57951 281.916 0.55561 262.888 0.55561C243.86 0.55561 243.86 1.89697 232.343 3.23827C220.826 4.57957 203.3 1.89697 176.26 0.55561C149.22 -0.785751 157.733 0.55561 139.205 1.89697C120.678 3.23833 107.659 1.89697 98.1448 1.89697C88.6307 1.89697 79.1167 0.555783 65.096 1.89697C51.0753 3.23816 42.5628 2.79113 25.5377 1.89697C8.51256 1.00281 9.51403 1.89697 5.00739 7.26192C0.500739 12.6269 3.50509 17.0055 2.00287 25.5C0.500657 33.9945 1.0014 29.6159 2.00287 36.7692Z" fill="white"/>
<mask id="mask0_299_3" style="mask-type:alpha" maskUnits="userSpaceOnUse" x="1" y="0" width="338" height="63">
<path d="M2.00278 25.5C0.500568 33.9945 1.0013 29.6159 2.00278 36.7692C2.64936 41.3875 3.122 53.6929 3.36807 62.5C9.73613 63 25.5 60 43.5 57C61.5 54 79 58.5 83.5 58.5C88 58.5 105 61 115.5 61.5C126 62 144.5 59 154.5 60C164.5 61 188 60 201 57.5C214 55 251.5 60.5 262 60.5C272.5 60.5 288.5 61.5 302 60C312.8 58.8 329.445 59.5 336.417 60C336.915 55.0616 337.498 51.9977 337.498 43.4754C337.498 32.2984 339 27.3805 339 17.9919C339 8.60322 336.997 7.60035 335.995 4.47079C334.994 1.34124 319.471 1.89703 307.453 3.23827C295.436 4.57951 281.916 0.55561 262.888 0.55561C243.86 0.55561 243.86 1.89697 232.343 3.23827C220.826 4.57957 203.3 1.89697 176.26 0.55561C149.22 -0.785751 157.733 0.55561 139.205 1.89697C120.678 3.23833 107.659 1.89697 98.1447 1.89697C88.6306 1.89697 79.1166 0.555783 65.0959 1.89697C51.0752 3.23816 42.5627 2.79113 25.5376 1.89697C8.51246 1.00281 9.51394 1.89697 5.00729 7.26192C0.50065 12.6269 3.505 17.0055 2.00278 25.5Z" fill="white"/>
</mask>
<g mask="url(#mask0_299_3)">
<path d="M351 -11H-11V63H351V-11Z" fill="#F9B22E"/>
</g>
</g>
<defs>
<clipPath id="clip0_299_3">
<rect width="339" height="210" fill="white"/>
</clipPath>
</defs>
</svg>
