<svg width="146" height="35" viewBox="0 0 146 35" fill="none" xmlns="http://www.w3.org/2000/svg">
<path d="M2.08 0.0802354C6.08014 -0.419721 21.0801 1.58024 30.58 1.58024C40.0801 1.58023 67.58 0.0802354 83.08 0.0802354C98.58 0.080237 122.58 0.580061 138.58 1.08024C142.08 1.08023 144.08 0.880299 144.08 6.08024V19.5802C144.08 25.5802 147.58 30.0802 142.58 31.5802C137.58 33.0802 134.58 35.5802 123.58 33.5802C112.58 31.5802 88.08 33.5802 76.08 33.5802C64.08 33.5802 54.08 32.0802 43.08 32.0802C32.08 32.0802 16.08 35.08 8.58 33.5802C1.08 32.0804 0.08 31.5802 0.08 28.0802C0.080032 24.5802 1.08 19.5801 1.08 13.0802C1.07995 6.5803 -1.91997 0.580231 2.08 0.0802354ZM67.9999 3.50016C59.4999 3.00016 43.4999 4.50028 36.9999 5.50016C30.4999 6.50003 21.0001 4.50049 15.4999 4.50016C9.90975 4.49984 4.99992 2.50016 3.99992 4.00016C3.00013 5.50024 4.99988 9.4102 4.99992 15.0002C4.99992 21.0001 5.49991 21.0002 3.99992 26.0002C2.79992 30.0002 5.99988 30.0002 7.99992 30.0002C10.0001 30.0002 19.5 30.5001 24.4999 29.5002C29.5 28.5002 44.5 28.5002 50.9999 28.5002C57.5 28.5002 75.9999 29.5002 79.9999 29.5002C84 29.5002 100.5 30.0002 103 29.5002C105.5 29.0002 115 28.0002 117.5 28.5002C120 29.0002 123 29.5002 125 30.5002C127 31.5002 132.5 31.0002 135.5 30.5002C138.5 30.0002 140.5 29.0001 141.5 27.5002C142.5 25.9999 139.5 20.0001 139.5 17.5002C139.5 15.0002 139.5 12.0001 140.5 9.00016C141.5 6.00027 140.5 4.50016 134 4.50016H95.9999C78.5 4.50016 76.4999 4.00016 67.9999 3.50016Z" fill="#F9B22E"/>
<path d="M52.6195 11.1583C54.2072 11.1583 55.3261 11.6724 55.9763 12.7006V12.9803C55.7092 13.3533 55.4042 13.5398 55.0615 13.5398C54.5121 13.5398 53.9299 13.2122 53.315 12.557C53.2344 12.5116 53.1411 12.4889 53.0353 12.4889C51.5887 13.5625 50.8528 14.316 50.8276 14.7495C50.8075 15.183 50.7041 15.7349 50.5176 16.4052C50.5176 17.625 50.9839 18.7893 51.9163 19.8982C52.4859 20.3216 52.8816 20.5333 53.1033 20.5333C53.8392 20.5333 54.3054 19.9738 54.502 18.8548C54.9052 18.5272 55.2102 18.3634 55.4168 18.3634H55.621C56.4173 18.4441 56.8155 18.7692 56.8155 19.3387C56.8155 20.2056 55.999 20.9995 54.3659 21.7203C53.9577 21.9068 53.3503 22 52.5439 22C51.067 21.6724 49.9733 21.1129 49.2626 20.3216C48.4209 19.1321 48 17.8972 48 16.6169V16.5413C48 15.4173 48.4889 14.2757 49.4667 13.1164C50.7167 11.811 51.7676 11.1583 52.6195 11.1583ZM60.9209 14.2581H61.1099C61.6744 14.2581 62.2868 14.6361 62.9471 15.3921C63.1134 15.619 63.2797 16.1885 63.4461 17.1008C63.5217 17.1966 63.6704 17.7233 63.8921 18.6809C64.4113 19.9713 64.744 20.8332 64.8901 21.2666C64.8599 21.6043 64.744 21.8463 64.5423 21.9924C64.245 22.1235 63.9173 22.1991 63.5595 22.2193L62.9849 22.1436C62.6321 22.058 62.4027 21.8513 62.2969 21.5237C62.1961 21.2767 62.0751 21.0877 61.934 20.9567C61.3291 21.5867 60.7823 21.9017 60.2933 21.9017H59.9153C58.9073 21.9017 58.2319 21.627 57.8891 21.0776C57.6371 20.5938 57.5111 20.2359 57.5111 20.004C57.5111 19.0665 58.5217 18.3508 60.5428 17.8569C60.8402 17.6905 60.9889 17.5015 60.9889 17.2898V16.8513C60.9889 16.5842 60.7974 16.3095 60.4143 16.0272H60.3538C59.8347 16.0272 59.3281 16.4909 58.8342 17.4183C58.683 17.499 58.494 17.5393 58.2671 17.5393C57.8891 17.4738 57.7001 17.2848 57.7001 16.9723C58.1134 15.7122 58.5343 15.0822 58.9627 15.0822C59.4718 14.5328 60.1245 14.2581 60.9209 14.2581ZM59.2198 19.9435C59.2198 20.1956 59.3458 20.4073 59.5978 20.5786H60.1043C60.6941 20.1452 60.9889 19.6588 60.9889 19.1195H60.9209C60.1749 19.2606 59.6079 19.4924 59.2198 19.815V19.9435ZM70.5832 11.3397H70.7193C71.4703 11.3397 72.0801 11.6799 72.5489 12.3604C72.2616 13.0358 71.7424 13.3735 70.9914 13.3735C70.4219 13.3735 69.9456 13.0811 69.5625 12.4965V12.4284C69.7792 11.7026 70.1195 11.3397 70.5832 11.3397ZM70.5832 14.8024H70.9914C71.939 14.8024 72.4128 15.6618 72.4128 17.3805C72.4128 18.2727 72.5262 19.1119 72.753 19.8982C72.753 21.2994 72.4128 22 71.7324 22H71.1275C70.4924 21.8589 70.1749 21.5413 70.1749 21.0474C70.1749 20.2712 70.0615 18.3256 69.8347 15.2107C69.9254 14.9385 70.1749 14.8024 70.5832 14.8024ZM74.4617 14.0313C75.1573 14.0917 75.7848 14.2404 76.3443 14.4773C77.0146 14.3614 77.5212 14.3034 77.8639 14.3034C79.2651 14.3034 80.3412 15.2283 81.0922 17.0781C80.9511 17.4965 80.5328 17.7056 79.8372 17.7056C78.9047 17.3629 78.3075 16.8841 78.0454 16.2692L77.8639 16.1784C77.0323 16.3448 76.6164 16.6724 76.6164 17.1613C76.6164 17.4335 76.5862 17.6149 76.5257 17.7056C76.5862 18.1139 76.6164 18.4415 76.6164 18.6885V21.2818C76.6164 21.7606 76.2586 22 75.5428 22C74.3483 22 73.751 21.3725 73.751 20.1174C73.6905 19.8352 73.6603 19.1497 73.6603 18.061V15.0141C73.6804 14.3589 73.9476 14.0313 74.4617 14.0313ZM85.2203 14.2581H85.4093C85.9738 14.2581 86.5862 14.6361 87.2465 15.3921C87.4128 15.619 87.5791 16.1885 87.7455 17.1008C87.8211 17.1966 87.9698 17.7233 88.1915 18.6809C88.7107 19.9713 89.0433 20.8332 89.1895 21.2666C89.1593 21.6043 89.0433 21.8463 88.8417 21.9924C88.5444 22.1235 88.2167 22.1991 87.8589 22.2193L87.2843 22.1436C86.9314 22.058 86.7021 21.8513 86.5963 21.5237C86.4955 21.2767 86.3745 21.0877 86.2334 20.9567C85.6285 21.5867 85.0817 21.9017 84.5927 21.9017H84.2147C83.2067 21.9017 82.5312 21.627 82.1885 21.0776C81.9365 20.5938 81.8105 20.2359 81.8105 20.004C81.8105 19.0665 82.8211 18.3508 84.8422 17.8569C85.1396 17.6905 85.2883 17.5015 85.2883 17.2898V16.8513C85.2883 16.5842 85.0968 16.3095 84.7137 16.0272H84.6532C84.1341 16.0272 83.6275 16.4909 83.1336 17.4183C82.9824 17.499 82.7933 17.5393 82.5665 17.5393C82.1885 17.4738 81.9995 17.2848 81.9995 16.9723C82.4128 15.7122 82.8337 15.0822 83.2621 15.0822C83.7712 14.5328 84.4239 14.2581 85.2203 14.2581ZM83.5192 19.9435C83.5192 20.1956 83.6452 20.4073 83.8972 20.5786H84.4037C84.9934 20.1452 85.2883 19.6588 85.2883 19.1195H85.2203C84.4743 19.2606 83.9073 19.4924 83.5192 19.815V19.9435ZM90.7697 20.0948C91.6164 20.3417 92.0398 20.7651 92.0398 21.3649V21.4254C91.9945 21.6018 91.7828 21.7933 91.4047 22H91.2913C90.6714 22 90.248 21.6144 90.0212 20.8432C90.1069 20.3443 90.3563 20.0948 90.7697 20.0948ZM93.6275 20.0948C94.4743 20.3417 94.8977 20.7651 94.8977 21.3649V21.4254C94.8523 21.6018 94.6406 21.7933 94.2626 22H94.1492C93.5292 22 93.1058 21.6144 92.879 20.8432C92.9647 20.3443 93.2142 20.0948 93.6275 20.0948ZM96.4854 20.0948C97.3322 20.3417 97.7555 20.7651 97.7555 21.3649V21.4254C97.7102 21.6018 97.4985 21.7933 97.1205 22H97.0071C96.3871 22 95.9637 21.6144 95.7369 20.8432C95.8226 20.3443 96.0721 20.0948 96.4854 20.0948Z" fill="#F9B22E"/>
</svg>
