<svg width="146" height="35" viewBox="0 0 146 35" fill="none" xmlns="http://www.w3.org/2000/svg">
<path d="M1.19097 28.2443C1.19097 33.4443 3.19092 33.2443 6.69097 33.2443C22.691 33.7445 46.6909 34.2441 62.1909 34.2441C77.6909 34.2441 105.191 32.7441 114.691 32.7441C124.191 32.7441 139.191 34.7441 143.191 34.2441C147.191 33.7441 144.191 27.7441 144.191 21.2441C144.191 14.7441 145.191 9.74414 145.191 6.24414C145.191 2.74414 144.191 2.24414 136.691 0.744316C129.191 -0.755509 113.191 2.24414 102.191 2.24414C91.1909 2.24414 81.1909 0.744316 69.1909 0.744316C57.1909 0.744316 32.6909 2.74432 21.6909 0.744316C10.6909 -1.25568 7.69097 1.24432 2.69097 2.74432C-2.30903 4.24432 1.19097 8.74432 1.19097 14.7443V28.2443Z" fill="#F9B22E"/>
<path d="M37.3104 11.4024C38.8981 11.4024 40.017 11.9165 40.6672 12.9447V13.2245C40.4001 13.5975 40.0952 13.784 39.7524 13.784C39.203 13.784 38.6209 13.4563 38.0059 12.8011C37.9253 12.7557 37.832 12.7331 37.7262 12.7331C36.2796 13.8066 35.5437 14.5602 35.5185 14.9936C35.4984 15.4271 35.3951 15.979 35.2086 16.6494C35.2086 17.8691 35.6748 19.0335 36.6072 20.1423C37.1768 20.5657 37.5725 20.7774 37.7942 20.7774C38.5301 20.7774 38.9964 20.2179 39.1929 19.099C39.5962 18.7714 39.9011 18.6075 40.1078 18.6075H40.3119C41.1083 18.6882 41.5064 19.0133 41.5064 19.5829C41.5064 20.4498 40.6899 21.2436 39.0568 21.9644C38.6486 22.1509 38.0412 22.2441 37.2348 22.2441C35.758 21.9165 34.6642 21.357 33.9535 20.5657C33.1118 19.3762 32.6909 18.1413 32.6909 16.8611V16.7855C32.6909 15.6615 33.1798 14.5198 34.1577 13.3606C35.4077 12.0551 36.4586 11.4024 37.3104 11.4024ZM43.0866 10.2154H43.2454C43.951 10.3213 44.3038 10.6741 44.3038 11.2739C44.082 12.1207 43.7469 12.7028 43.2983 13.0204L43.1395 13.1262H42.8749C42.6078 13.1262 42.4137 12.8969 42.2927 12.4382V12.3323C42.7161 11.9946 42.9278 11.73 42.9278 11.5385C42.5044 11.2512 42.2927 11.0219 42.2927 10.8505C42.2927 10.4271 42.5573 10.2154 43.0866 10.2154ZM47.4717 14.5022C48.7368 14.5022 49.9036 15.0138 50.9722 16.037C51.1133 16.2285 51.3905 16.8485 51.8038 17.8969C51.8341 17.9221 51.8492 18.033 51.8492 18.2295C51.8492 18.5219 50.9974 18.7411 49.2937 18.8873H47.1768C47.081 18.8873 47.0332 18.9604 47.0332 19.1065C47.3053 19.8878 47.6204 20.3742 47.9782 20.5657H48.9308C48.9913 20.5657 49.4046 20.2003 50.1708 19.4694C50.2564 19.419 50.3295 19.3938 50.39 19.3938C50.9646 19.3938 51.4283 19.7341 51.7811 20.4145C51.7811 21.1756 51.0024 21.7855 49.4449 22.2441H49.3693C47.2827 22.2441 45.9192 21.2714 45.2791 19.3258C45.133 18.8066 45.0599 18.3681 45.0599 18.0103V17.791C45.0599 16.6721 45.5967 15.6741 46.6703 14.7971L47.4717 14.5022ZM47.3205 16.914V16.982H47.6909C48.5175 16.8863 48.9787 16.8384 49.0745 16.8384H49.4449V16.5435C49.198 16.2058 48.8326 16.037 48.3487 16.037C47.6632 16.1832 47.3205 16.4755 47.3205 16.914ZM55.3799 13.9805H55.4555C56.6098 13.9805 57.4036 14.5173 57.8371 15.5909C57.6607 15.9639 57.4036 16.1504 57.0659 16.1504C56.6375 16.1504 56.1461 15.8933 55.5916 15.3792C55.3698 15.3792 55.138 15.7547 54.8961 16.5057C54.9414 17.1106 55.0347 17.413 55.1758 17.413C55.5941 17.3223 55.8966 17.2769 56.0831 17.2769C57.2222 17.2769 58.0639 17.9523 58.6083 19.3031L58.6763 19.7265C58.4596 21.3596 57.7111 22.1761 56.4308 22.1761C54.0064 21.9241 52.7464 21.4579 52.6506 20.7774C52.7968 20.2633 53.1471 20.0062 53.7015 20.0062H53.7695C54.3744 20.3339 55.0296 20.4977 55.7353 20.4977C56.0629 20.3717 56.2267 20.0667 56.2267 19.5829V19.099L56.1511 18.9553L55.3043 18.9629C54.3819 18.9125 53.6763 18.6479 53.1874 18.169C53.0916 18.0884 52.9606 17.6272 52.7942 16.7855C52.7942 15.7724 53.2378 14.9306 54.1249 14.2603C54.4525 14.0738 54.8709 13.9805 55.3799 13.9805ZM61.9349 12.1282C62.7716 12.35 63.1899 12.67 63.1899 13.0884C63.1395 13.5521 63.1143 13.9957 63.1143 14.419C63.1143 14.4946 63.6083 14.6181 64.5962 14.7895L65.0347 15.228C65.0347 15.8681 64.5911 16.1882 63.704 16.1882H63.3411C63.1899 16.1882 63.1143 16.7048 63.1143 17.7381V20.1801H63.2655C63.2655 19.7819 63.5352 19.535 64.0745 19.4392C64.9616 19.4392 65.4051 19.7593 65.4051 20.3994C65.2035 21.5788 64.6818 22.1862 63.8401 22.2215C63.7494 22.2366 63.5579 22.2441 63.2655 22.2441H62.6758C62.0206 22.2441 61.4056 21.7754 60.831 20.8379C60.6798 20.3591 60.6042 20.0642 60.6042 19.9533C60.6546 19.1418 60.6798 18.5269 60.6798 18.1086L60.6496 17.292L60.6798 16.2638C59.8431 16.2638 59.4248 15.9689 59.4248 15.3792C59.4248 15.0667 59.8683 14.8197 60.7554 14.6383C60.7554 12.9649 61.1486 12.1282 61.9349 12.1282ZM71.5442 14.3586C72.1692 14.3586 72.6128 14.5047 72.8749 14.7971L73.7595 14.729H73.8351C75.327 14.729 76.3351 15.7623 76.8593 17.8288C76.8593 17.8691 76.8366 18.0178 76.7912 18.2749C76.7912 18.3102 76.8139 18.4589 76.8593 18.721C76.8593 19.6433 76.2443 20.5783 75.0145 21.5259C74.3441 21.8737 73.6536 22.0476 72.9429 22.0476L72.5044 21.972L72.4288 22.1156V22.7129C72.3129 24.2855 72.0407 25.0718 71.6123 25.0718L71.2418 25.1474H71.1738C70.4329 25.0415 70.0624 24.7945 70.0624 24.4064C70.2086 23.1766 70.3572 21.4276 70.5085 19.1595V18.721L70.4329 18.2749C70.5185 18.0481 70.5916 17.5062 70.6521 16.6494C70.6017 16.478 70.5765 16.3797 70.5765 16.3545C70.6622 15.0743 70.9848 14.4342 71.5442 14.4342V14.3586ZM72.5725 18.0556C72.5725 18.0859 72.5977 18.4059 72.6481 19.0158C72.5523 19.6307 72.5044 20.0491 72.5044 20.2709C72.7312 20.3717 72.9757 20.4221 73.2378 20.4221C74.2257 19.9936 74.7196 19.2527 74.7196 18.1993C74.7196 17.5592 74.4248 16.9442 73.8351 16.3545C73.0941 16.5158 72.7237 16.7124 72.7237 16.9442C72.7237 17.2215 72.6733 17.5919 72.5725 18.0556ZM81.0402 14.5022H81.2292C81.7937 14.5022 82.4061 14.8802 83.0664 15.6363C83.2328 15.8631 83.3991 16.4326 83.5654 17.3449C83.641 17.4407 83.7897 17.9674 84.0115 18.9251C84.5306 20.2154 84.8633 21.0773 85.0095 21.5108C84.9792 21.8485 84.8633 22.0904 84.6617 22.2366C84.3643 22.3676 84.0367 22.4432 83.6788 22.4634L83.1042 22.3878C82.7514 22.3021 82.5221 22.0955 82.4162 21.7678C82.3154 21.5209 82.1944 21.3318 82.0533 21.2008C81.4485 21.8308 80.9016 22.1459 80.4127 22.1459H80.0347C79.0266 22.1459 78.3512 21.8712 78.0085 21.3218C77.7564 20.8379 77.6304 20.48 77.6304 20.2482C77.6304 19.3107 78.641 18.5949 80.6622 18.101C80.9596 17.9347 81.1083 17.7457 81.1083 17.534V17.0955C81.1083 16.8283 80.9167 16.5536 80.5337 16.2714H80.4732C79.954 16.2714 79.4475 16.7351 78.9535 17.6625C78.8023 17.7431 78.6133 17.7835 78.3865 17.7835C78.0085 17.7179 77.8194 17.5289 77.8194 17.2164C78.2328 15.9563 78.6536 15.3263 79.082 15.3263C79.5911 14.7769 80.2438 14.5022 81.0402 14.5022ZM79.3391 20.1877C79.3391 20.4397 79.4651 20.6514 79.7171 20.8228H80.2237C80.8134 20.3893 81.1083 19.9029 81.1083 19.3636H81.0402C80.2942 19.5047 79.7272 19.7366 79.3391 20.0592V20.1877ZM86.6728 14.2754C87.3683 14.3359 87.9959 14.4846 88.5553 14.7215C89.2257 14.6055 89.7322 14.5476 90.075 14.5476C91.4762 14.5476 92.5523 15.4725 93.3033 17.3223C93.1622 17.7406 92.7438 17.9498 92.0483 17.9498C91.1158 17.607 90.5185 17.1282 90.2564 16.5133L90.075 16.4226C89.2433 16.5889 88.8275 16.9165 88.8275 17.4054C88.8275 17.6776 88.7973 17.8591 88.7368 17.9498C88.7973 18.3581 88.8275 18.6857 88.8275 18.9326V21.5259C88.8275 22.0047 88.4696 22.2441 87.7539 22.2441C86.5594 22.2441 85.9621 21.6166 85.9621 20.3616C85.9016 20.0793 85.8714 19.3938 85.8714 18.3051V15.2583C85.8915 14.603 86.1587 14.2754 86.6728 14.2754ZM96.5316 12.1282C97.3683 12.35 97.7867 12.67 97.7867 13.0884C97.7363 13.5521 97.7111 13.9957 97.7111 14.419C97.7111 14.4946 98.205 14.6181 99.1929 14.7895L99.6314 15.228C99.6314 15.8681 99.1879 16.1882 98.3008 16.1882H97.9379C97.7867 16.1882 97.7111 16.7048 97.7111 17.7381V20.1801H97.8623C97.8623 19.7819 98.1319 19.535 98.6713 19.4392C99.5584 19.4392 100.002 19.7593 100.002 20.3994C99.8003 21.5788 99.2786 22.1862 98.4369 22.2215C98.3462 22.2366 98.1546 22.2441 97.8623 22.2441H97.2726C96.6173 22.2441 96.0024 21.7754 95.4278 20.8379C95.2766 20.3591 95.201 20.0642 95.201 19.9533C95.2514 19.1418 95.2766 18.5269 95.2766 18.1086L95.2464 17.292L95.2766 16.2638C94.4399 16.2638 94.0216 15.9689 94.0216 15.3792C94.0216 15.0667 94.4651 14.8197 95.3522 14.6383C95.3522 12.9649 95.7454 12.1282 96.5316 12.1282ZM101.816 11.5839H101.953C102.704 11.5839 103.313 11.9241 103.782 12.6045C103.495 13.2799 102.976 13.6176 102.225 13.6176C101.655 13.6176 101.179 13.3253 100.796 12.7406V12.6726C101.012 11.9468 101.353 11.5839 101.816 11.5839ZM101.816 15.0466H102.225C103.172 15.0466 103.646 15.9059 103.646 17.6247C103.646 18.5168 103.759 19.356 103.986 20.1423C103.986 21.5435 103.646 22.2441 102.966 22.2441H102.361C101.726 22.103 101.408 21.7855 101.408 21.2915C101.408 20.5153 101.295 18.5697 101.068 15.4548C101.159 15.1826 101.408 15.0466 101.816 15.0466ZM109.521 11.4024C109.798 11.4024 110.256 11.7149 110.897 12.3399V13.1564C110.897 13.3984 110.917 13.7336 110.957 14.162L110.897 14.283C110.982 14.4493 111.025 14.6786 111.025 14.971V15.2885C111.025 16.8208 110.982 17.9498 110.897 18.6756C110.816 19.0486 110.629 19.2351 110.337 19.2351C109.374 18.9982 108.893 18.6428 108.893 18.169C108.853 16.9241 108.833 15.8807 108.833 15.039V14.85L108.765 14.4115L108.833 13.8444C108.747 13.3253 108.704 12.9069 108.704 12.5894C108.704 11.8384 108.807 11.4629 109.014 11.4629C109.18 11.4226 109.349 11.4024 109.521 11.4024ZM110.209 20.3616C111.212 20.4523 111.713 20.7446 111.713 21.2386V21.3066C111.713 21.9316 111.338 22.2441 110.587 22.2441C109.553 22.1786 108.946 21.8233 108.765 21.1781C108.765 20.6338 109.246 20.3616 110.209 20.3616Z" fill="white"/>
</svg>
