<svg width="59" height="60" viewBox="0 0 59 60" fill="none" xmlns="http://www.w3.org/2000/svg">
<path d="M30.7124 0.319396C33.7756 -0.325479 40.386 -0.164403 42.8042 2.4151C45.2225 4.9946 46.6736 8.54171 48.1245 9.18658C49.576 9.83159 54.7343 11.6047 56.024 13.5391C57.3137 15.4737 58.6031 19.1818 58.4419 22.7286C58.2807 26.2754 57.9583 31.4344 58.4419 33.5303C58.9256 35.6262 58.9255 39.3345 56.8296 42.2364C54.7341 45.1379 53.9286 46.4279 53.2837 48.5235C52.6389 50.6192 49.4145 52.3928 47.9634 54.0049C46.5124 55.6171 43.9325 59.4866 39.5796 59.003C35.2267 58.5193 30.2288 59.97 25.231 57.713C20.2334 55.456 18.4599 55.6173 12.0113 53.6827C6.85253 51.5869 4.95014 48.2984 4.43412 45.461C3.78925 41.9142 3.4669 38.367 2.33842 35.1426C1.20988 31.9183 -1.20851 26.7592 0.726111 22.4063C2.66069 18.0536 5.40132 17.2474 6.36869 14.668C7.336 12.0885 9.27049 6.60648 13.9458 4.83307C18.6209 3.05979 19.5884 3.38199 22.0064 3.05963C24.4246 2.7372 27.6493 0.964306 30.7124 0.319396ZM41.9976 6.44537C39.2568 2.25398 32.6468 3.38279 29.2613 3.54401C25.8758 3.7053 23.4575 5.63946 19.7495 6.12311C16.0415 6.60677 12.3332 9.02497 11.2046 11.7657C10.0761 14.5064 9.43107 15.6354 7.81888 18.2149C6.20691 20.7942 4.75657 24.663 4.75638 26.92C4.75639 29.177 5.72382 31.4346 6.36869 33.3692C7.01348 35.3038 6.04581 36.9161 7.33549 42.7198C8.36729 47.3629 11.205 49.3296 14.107 50.2969C22.3291 51.4255 22.9738 53.3607 25.3921 54.6505C27.8105 55.9402 34.2597 58.0357 39.0962 55.295C43.9325 52.5545 42.6426 53.6824 45.5445 52.2315C48.4461 50.7807 52.3149 44.8171 53.1216 43.6876C53.9277 42.559 55.3793 37.7217 55.7017 35.9483C56.0241 34.1749 56.3466 31.273 55.5406 27.8878C54.7345 24.5022 54.8954 24.0184 54.0894 20.3106C53.2833 16.6028 50.865 13.8621 48.2857 12.7335C45.7062 11.6049 44.7383 10.6371 41.9976 6.44537ZM24.7476 8.54108C28.4557 7.89617 35.273 6.50924 38.2906 7.57428C41.031 8.54217 43.6109 13.0559 45.8677 14.8292C48.1248 16.6027 51.6712 20.6332 51.9937 24.0186C52.3161 27.4042 53.2833 32.5633 51.9937 36.7549C50.704 40.9465 51.8325 43.5266 47.48 47.2344C43.1273 50.9423 40.3857 51.7481 37.6451 51.587C34.9046 51.4258 33.9364 52.0705 30.8736 51.9092C28.7778 51.5867 24.5544 49.9427 22.4908 49.8135C19.9113 49.6523 12.4956 46.7503 11.0445 42.3975C9.5935 38.0446 9.10927 32.2404 8.46439 30.1446C7.81972 28.0488 8.78708 23.3742 10.2378 21.6006C11.6887 19.8271 14.4294 13.7017 16.0415 12.4112C18.6244 10.3449 21.0397 9.18593 24.7476 8.54108ZM33.2925 29.1778C32.9701 25.9544 30.2303 26.2753 29.2622 26.2755C28.295 26.2755 26.1991 27.7266 25.8765 29.9835C25.5541 32.2403 24.7891 35.3825 24.2642 36.4327C23.6192 37.7222 22.0077 38.3678 21.3628 41.9141C20.8471 44.7513 23.0819 45.8905 24.2642 46.1055C25.2308 46.424 24.9096 46.1055 26.3599 46.9112C27.8106 47.7169 28.4566 46.9114 30.7134 46.4278C32.9696 45.9434 33.5738 42.6233 33.7759 41.1075C34.0982 38.6895 32.6478 37.8831 32.9703 35.3038C33.2927 32.7246 33.6149 32.4017 33.2925 29.1778ZM36.5171 13.378C35.0663 11.9272 32.0025 11.9277 30.3902 12.5723C28.7784 13.2172 27.6493 14.5065 26.8433 15.796C26.0372 17.0857 25.2316 18.3762 25.8765 19.8272C26.5212 21.2778 27.005 21.9228 28.2945 21.9229C28.7788 21.9224 30.1977 21.3428 31.3579 22.2452C32.8086 23.3735 33.1313 23.8568 35.5494 22.8897C37.9672 21.9224 38.9351 19.8267 38.9351 18.6983C38.935 17.5697 37.9678 14.8289 36.5171 13.378Z" fill="#F9B22E"/>
</svg>
