<svg width="52" height="53" viewBox="0 0 52 53" fill="none" xmlns="http://www.w3.org/2000/svg">
<path d="M27.2054 0.78813C29.9188 0.217039 35.7732 0.360085 37.9154 2.64458C40.0574 4.92945 41.3431 8.07141 42.6283 8.64262C43.9137 9.21387 48.4825 10.7847 49.6254 12.4981C50.7678 14.2118 51.9107 17.4971 51.7679 20.6387C51.6251 23.7803 51.3396 28.3496 51.7679 30.2061C52.1963 32.0626 52.1956 35.3477 50.3392 37.918C48.4831 40.4881 47.7688 41.631 47.1976 43.4874C46.6261 45.3435 43.7709 46.9149 42.4857 48.3428C41.2004 49.771 38.9145 53.198 35.059 52.7696C31.2034 52.3413 26.7767 53.6261 22.35 51.627C17.9231 49.6277 16.352 49.7703 10.64 48.0567C6.07072 46.2004 4.38529 43.2877 3.9281 40.7745C3.35693 37.633 3.0711 34.4907 2.07166 31.6348C1.07205 28.7788 -1.07041 24.2083 0.642946 20.3526C2.35651 16.4972 4.78404 15.7826 5.64099 13.4981C6.49779 11.2133 8.21198 6.35825 12.3529 4.78715C16.4942 3.21633 17.3516 3.50144 19.4935 3.21586C21.6356 2.93026 24.4922 1.35938 27.2054 0.78813ZM37.2015 6.21489C34.7738 2.50195 28.9182 3.50079 25.9193 3.6436C22.9208 3.78655 20.7787 5.50028 17.4945 5.92875C14.2101 6.35721 10.9249 8.49921 9.92517 10.9268C8.92563 13.3542 8.35413 14.3549 6.92615 16.6397C5.49833 18.9245 4.21334 22.3516 4.21326 24.3506C4.21338 26.3498 5.06981 28.35 5.64099 30.0635C6.21176 31.7769 5.35612 33.2054 6.49841 38.3457C7.4124 42.458 9.92522 44.2008 12.4955 45.0577C19.7786 46.0573 20.3505 47.7707 22.4926 48.9131C24.6347 50.0556 30.3472 51.9118 34.6312 49.4844C38.9148 47.0571 37.773 48.0565 40.3431 46.7715C42.9134 45.4864 46.3405 40.2026 47.0551 39.2022C47.7691 38.202 49.0545 33.9187 49.3402 32.3477C49.6258 30.7769 49.9104 28.2065 49.1967 25.2081C48.4827 22.2093 48.6254 21.7801 47.9115 18.4961C47.1975 15.2118 45.0556 12.7839 42.7709 11.7842C40.4861 10.7846 39.6289 9.92732 37.2015 6.21489ZM21.9213 8.07036C25.2058 7.49912 31.2444 6.26957 33.9174 7.21293C36.345 8.06988 38.63 12.0689 40.6293 13.6397C42.6285 15.2106 45.7703 18.7806 46.056 21.7793C46.3416 24.7781 47.1982 29.3478 46.056 33.0606C44.9136 36.7735 45.9125 39.0594 42.057 42.3438C38.2016 45.628 35.7736 46.342 33.3461 46.1993C30.9185 46.0565 30.0611 46.6272 27.348 46.4844C25.4915 46.1988 21.7501 44.7423 19.9222 44.628C17.6372 44.485 11.0688 41.9143 9.78357 38.0586C8.49849 34.2031 8.06958 29.0627 7.49841 27.2061C6.92728 25.3496 7.78351 21.2076 9.06873 19.6368C10.354 18.0655 12.7824 12.6395 14.2103 11.4971C16.498 9.66695 18.6372 8.64156 21.9213 8.07036ZM26.0804 17.5303C24.0462 15.1496 21.9924 14.8855 19.0502 16.5342C17.2732 17.5301 17.9559 18.2204 18.6849 21.3204C19.0499 22.8725 19.2234 25.313 19.0502 27.5206C18.8768 29.7282 17.3149 37.092 19.4877 37.7071C21.2261 38.1988 25.8924 35.2953 26.5736 34.1641C28.8383 31.0649 30.1169 32.3927 32.7738 31.0645C34.2527 30.3251 39.6847 27.5834 38.975 25.3067C38.2651 23.0301 34.8719 22.9569 31.0023 21.3204C27.133 19.6839 28.1147 19.9112 26.0804 17.5303Z" fill="#81583F"/>
</svg>
