<svg width="52" height="53" viewBox="0 0 52 53" fill="none" xmlns="http://www.w3.org/2000/svg">
<path d="M27.2051 0.788726C29.9183 0.217515 35.7728 0.3604 37.915 2.64517C40.057 4.93001 41.3427 8.07192 42.6279 8.64322C43.9132 9.21446 48.4835 10.7851 49.626 12.4987C50.7683 14.2125 51.9103 17.4969 51.7676 20.6383C51.6247 23.78 51.3392 28.3503 51.7676 30.2067C52.1958 32.0632 52.1959 35.3475 50.3398 37.9176C48.4837 40.4877 47.7694 41.6308 47.1982 43.487C46.6267 45.3432 43.7705 46.9145 42.4853 48.3424C41.2 49.7707 38.9149 53.1975 35.0595 52.7692C31.2039 52.3409 26.7764 53.6268 22.3496 51.6276C17.9227 49.6284 16.3518 49.7709 10.6396 48.0573C6.07014 46.2009 4.38479 43.2874 3.92771 40.7741C3.35651 37.6325 3.07083 34.4905 2.07127 31.6344C1.07167 28.7785 -1.06965 24.2088 0.643532 20.3532C2.35699 16.4979 4.78447 15.7829 5.64158 13.4987C6.49839 11.2139 8.2124 6.35778 12.3535 4.78677C16.4941 3.21622 17.3517 3.5019 19.4931 3.21646C21.6351 2.93086 24.4919 1.36001 27.2051 0.788726ZM37.2011 6.21451C34.7735 2.50171 28.9189 3.50134 25.9199 3.6442C22.9211 3.78709 20.7785 5.50095 17.4941 5.92935C14.2097 6.35788 10.9254 8.49979 9.92576 10.9274C8.92629 13.3546 8.35463 14.3547 6.92673 16.6393C5.49878 18.9242 4.21287 22.3521 4.21287 24.3512C4.21311 26.3502 5.07044 28.3497 5.64158 30.0631C6.21244 31.7765 5.35581 33.2052 6.49802 38.3454C7.41203 42.4579 9.92568 44.2005 12.4961 45.0573C19.779 46.0569 20.3501 47.7713 22.4922 48.9137C24.6342 50.0561 30.3468 51.9122 34.6308 49.485C38.9147 47.0575 37.7729 48.056 40.3428 46.7711C42.9127 45.4862 46.3396 40.204 47.0547 39.2028C47.7686 38.2033 49.0539 33.9198 49.3398 32.3483C49.6254 30.7775 49.9111 28.2064 49.1972 25.2077C48.4832 22.2089 48.626 21.7799 47.9121 18.4958C47.1981 15.2112 45.0554 12.7835 42.7705 11.7838C40.4858 10.7843 39.6287 9.92718 37.2011 6.21451ZM21.9219 8.06998C25.2064 7.49873 31.245 6.27013 33.9179 7.21353C36.3452 8.07083 38.6299 12.0684 40.6289 13.6393C42.6282 15.2102 45.77 18.7811 46.0556 21.7799C46.3413 24.7788 47.198 29.3484 46.0556 33.0612C44.9133 36.774 45.913 39.059 42.0576 42.3434C38.2022 45.6277 35.7741 46.3415 33.3467 46.1989C30.9191 46.0561 30.0616 46.6278 27.3486 46.485C25.4923 46.1995 21.7509 44.7431 19.9228 44.6286C17.638 44.4858 11.0685 41.9149 9.78318 38.0592C8.49798 34.2036 8.06923 29.0622 7.49802 27.2057C6.9271 25.349 7.78417 21.2081 9.06931 19.6374C10.3545 18.0664 12.7819 12.6407 14.2099 11.4977C16.4979 9.66731 18.6374 8.64119 21.9219 8.06998ZM26.0801 17.5309C24.0458 15.1501 21.9931 14.8861 19.0508 16.5348C17.2734 17.5308 17.9564 18.2205 18.6855 21.321C19.0505 22.8733 19.2241 25.3136 19.0508 27.5211C18.8774 29.7289 17.3153 37.0928 19.4883 37.7077C21.2271 38.1987 25.8931 35.2958 26.5742 34.1647C28.8392 31.065 30.1171 32.3928 32.7744 31.0641C34.2532 30.3247 39.6839 27.584 38.9746 25.3073C38.2649 23.0305 34.8726 22.9574 31.0029 21.321C27.1332 19.6844 28.1143 19.9118 26.0801 17.5309Z" fill="#F9B22E"/>
</svg>
