<svg width="54" height="55" viewBox="0 0 54 55" fill="none" xmlns="http://www.w3.org/2000/svg">
<path d="M28.2508 0.293723C31.0683 -0.299437 37.1482 -0.150988 39.3729 2.22146C41.5972 4.59405 42.9329 7.85649 44.2674 8.44997C45.6026 9.04328 50.3464 10.6746 51.5331 12.4539C52.7194 14.2334 53.906 17.6445 53.7577 20.907C53.6094 24.1694 53.3129 28.9146 53.7577 30.8426C54.2025 32.7703 54.2029 36.1811 52.2753 38.8504C50.3474 41.5196 49.6057 42.7067 49.0126 44.6345C48.4191 46.5622 45.4536 48.1937 44.119 49.6765C42.7843 51.1596 40.411 54.7181 36.4071 54.2732C32.4032 53.8285 27.8059 55.1628 23.2088 53.0867C18.612 51.0107 16.9803 51.1591 11.0487 49.3797C6.3034 47.4518 4.5535 44.4262 4.07896 41.8162C3.48586 38.554 3.18913 35.2916 2.15123 32.326C1.11314 29.36 -1.11166 24.6141 0.667832 20.6101C2.44738 16.6062 4.96848 15.8647 5.85826 13.492C6.74801 11.1193 8.5277 6.07749 12.828 4.44607C17.1284 2.81487 18.0188 3.11077 20.243 2.81423C22.4674 2.51761 25.4334 0.88697 28.2508 0.293723ZM38.6317 5.92849C36.1106 2.07299 30.0301 3.11027 26.9159 3.25857C23.802 3.40708 21.5774 5.18674 18.1669 5.63161C14.7561 6.07658 11.3455 8.30107 10.3075 10.822C9.26945 13.343 8.67608 14.3811 7.19322 16.7537C5.71036 19.1263 4.37501 22.6853 4.37486 24.7615C4.37486 26.8374 5.26508 28.9137 5.85826 30.6931C6.45144 32.4727 5.56162 33.9562 6.74791 39.2947C7.69697 43.5655 10.3072 45.3746 12.9764 46.2644C20.5392 47.3025 21.1331 49.082 23.3573 50.2683C25.5817 51.4547 31.5139 53.383 35.9628 50.8621C40.4113 48.3413 39.2254 49.3792 41.8944 48.0447C44.5637 46.7101 48.1225 41.2226 48.8641 40.1843C49.6056 39.146 50.9406 34.6974 51.2372 33.0662C51.5337 31.4349 51.8302 28.7652 51.0887 25.6511C50.3474 22.5373 50.4952 22.0921 49.7538 18.6814C49.0122 15.2708 46.7876 12.7497 44.4149 11.7117C42.0426 10.6737 41.1524 9.78368 38.6317 5.92849ZM22.7645 7.85622C26.1754 7.26301 32.4459 5.9869 35.2215 6.96657C37.7424 7.85661 40.1153 12.0082 42.1913 13.6394C44.2673 15.2706 47.5302 18.9784 47.827 22.0926C48.1236 25.2067 49.0132 29.9528 47.827 33.8084C46.6408 37.6637 47.6778 40.0366 43.6747 43.447C39.6708 46.8577 37.1488 47.5992 34.6278 47.451C32.1071 47.3027 31.2166 47.8961 28.3993 47.7478C26.4714 47.4511 22.5865 45.9388 20.6883 45.8201C18.3156 45.6718 11.4937 43.0018 10.159 38.9978C8.82457 34.9939 8.38012 29.655 7.78697 27.7273C7.19413 25.7992 8.08329 21.499 9.41783 19.8679C10.7526 18.2361 13.2739 12.6011 14.7567 11.4148C17.1324 9.5143 19.354 8.44935 22.7645 7.85622ZM27.0829 17.6804C24.9704 15.2082 22.8384 14.9342 19.7831 16.6463C17.9376 17.6805 18.6471 18.3966 19.4042 21.616C19.7832 23.2278 19.963 25.7621 19.7831 28.0545C19.6031 30.347 17.9807 37.9941 20.2372 38.6326C22.0425 39.1429 26.888 36.1286 27.5956 34.9539C29.9474 31.7355 31.2748 33.1137 34.034 31.7342C35.5699 30.9662 41.2103 28.1198 40.4735 25.7556C39.7362 23.3916 36.2126 23.3154 32.1942 21.616C28.1761 19.9166 29.1954 20.1529 27.0829 17.6804Z" fill="white"/>
</svg>
